<?xml version="1.0" standalone="no"?>
<!DOCTYPE svg PUBLIC "-//W3C//DTD SVG 1.1//EN" "http://www.w3.org/Graphics/SVG/1.1/DTD/svg11.dtd" >
<svg xmlns="http://www.w3.org/2000/svg" xmlns:xlink="http://www.w3.org/1999/xlink" version="1.1">
<metadata></metadata>
<defs>
<font id="sommet_rounded_blackblack" horiz-adv-x="1128" >
<font-face units-per-em="2048" ascent="1290" descent="-758" />
<missing-glyph horiz-adv-x="450" />
<glyph horiz-adv-x="0" />
<glyph horiz-adv-x="682" />
<glyph unicode=" "  horiz-adv-x="450" />
<glyph unicode="&#x09;" horiz-adv-x="450" />
<glyph unicode="&#xa0;" horiz-adv-x="450" />
<glyph unicode="!" horiz-adv-x="516" d="M117 23v284q0 47 215 47q30 0 53 -14.5t23 -38.5v-272q0 -24 -23.5 -39t-52.5 -15q-215 0 -215 48zM121 518v1032q0 15 24.5 25.5t63.5 14.5t68 5.5t57 1.5q29 0 52.5 -15.5t23.5 -37.5v-1020q0 -24 -23 -38.5t-53 -14.5q-213 0 -213 47z" />
<glyph unicode="&#x22;" horiz-adv-x="864" d="M86 956v504q0 27 76.5 40t136.5 13q26 0 48 -18.5t22 -40.5v-491q0 -23 -21.5 -40.5t-48.5 -17.5q-65 0 -139 11.5t-74 39.5zM494 956v504q0 27 77 40t136 13q26 0 48.5 -18.5t22.5 -40.5v-491q0 -23 -22 -40.5t-49 -17.5q-23 0 -54 2t-69 7t-64 16t-26 26z" />
<glyph unicode="#" horiz-adv-x="1314" d="M68 420q0 198 45 198h200l41 199h-135q-19 0 -32 21t-13 47q0 198 45 198h211l84 340q5 18 52.5 14.5t92.5 -13.5t64 -17q26 -8 32 -35.5t-3 -46.5l-58 -242h215l84 340q5 18 52.5 14.5t92.5 -13.5t64 -17q26 -8 32 -35.5t-3 -46.5l-57 -242h104q19 0 31 -20.5t12 -46.5 q0 -199 -45 -199h-174l-45 -199h131q19 0 31 -20.5t12 -46.5q0 -199 -45 -199h-203l-78 -329q-4 -19 -29.5 -33.5t-50.5 -14.5q-24 0 -66.5 6.5t-81.5 21.5t-34 34l76 315h-215l-78 -329q-4 -19 -29.5 -33.5t-50.5 -14.5q-24 0 -66.5 6.5t-81.5 21.5t-34 34l76 315h-129 q-18 0 -30.5 21.5t-12.5 46.5zM578 618h215l41 199h-211z" />
<glyph unicode="$" horiz-adv-x="1189" d="M94 137q61 186 101 178q255 -61 368 -61q98 0 158.5 30t60.5 95q0 48 -34.5 92.5t-90 82t-122.5 77t-134 87t-122.5 102.5t-90 133t-34.5 169q0 310 352 363v141q0 15 24 25.5t61.5 14.5t65.5 5.5t54 1.5q30 0 50.5 -14t20.5 -37v-133q162 -17 234 -51q26 -12 37 -35 t2 -53q-32 -93 -49 -121q-38 -64 -91 -49q-144 41 -235 41q-41 0 -77 -5.5t-69.5 -17.5t-53 -35.5t-19.5 -56.5q0 -40 27 -78t71.5 -69t101 -67t115 -70.5t115 -81.5t101 -99t71.5 -124t27 -155q0 -100 -26.5 -172t-77 -113.5t-112 -63t-143.5 -29.5v-164q0 -22 -21.5 -36.5 t-50.5 -14.5q-27 0 -55 1.5t-65 5.5t-60.5 14.5t-23.5 25.5v164q-201 18 -332 73q-50 20 -29 84z" />
<glyph unicode="%" horiz-adv-x="1986" d="M96 1018v172q0 311 334 311h39q172 0 253 -82t81 -245v-173q0 -311 -334 -311h-39q-172 0 -253 82t-81 246zM371 1047q0 -36 0.5 -52.5t4 -41.5t11.5 -36t22.5 -19.5t36.5 -8.5h7q46 0 60.5 29t14.5 90v125v36t-1 31t-3 30t-5 24t-8.5 21.5t-13.5 14t-19 10.5t-25 3h-7 q-22 0 -36.5 -7.5t-22 -17.5t-11.5 -32t-4.5 -39t-0.5 -50v-100v-10zM473 47l811 1460q13 24 75 3.5t107 -46.5q23 -12 39 -33.5t8 -37.5l-73 -131l-729 -1315q-7 -13 -35 -16t-53 6q-23 6 -60 23.5t-68 43t-22 43.5zM1186 309v172q0 312 334 312h41q171 0 252 -83t81 -247 v-172q0 -153 -83.5 -232t-249.5 -79h-41q-172 0 -253 82.5t-81 246.5zM1460 346q0 -34 0.5 -46.5t2 -38t6 -35.5t13 -23.5t22 -18t32.5 -4.5h8q46 0 60 28t14 89v127v47.5t-2 38.5t-6.5 36t-12.5 23.5t-21 18t-32 4.5h-8q-22 0 -36.5 -7.5t-22.5 -17.5t-11.5 -31t-4.5 -38 t-1 -49v-103z" />
<glyph unicode="&#x26;" horiz-adv-x="1675" d="M90 393v39q0 120 49.5 206.5t126.5 127.5q-60 32 -104.5 102.5t-44.5 165.5v43q0 119 40.5 201.5t119.5 129.5t182 67t243 20q241 0 289 -53q13 -23 13 -41q-2 -4 -12 -32t-20 -51t-24 -49.5t-30.5 -41.5t-32.5 -13q-174 19 -236 15q-126 -4 -177.5 -35t-51.5 -100 q0 -62 8 -109q3 -23 15.5 -40.5t37 -28t48.5 -16.5t64 -9t68 -3.5t76 -0.5h330v235q0 15 25.5 25.5t65 14.5t69 5.5t55.5 1.5q27 0 43.5 -7t23 -24t8 -30t1.5 -39v-8v-174h205q22 0 35.5 -20.5t13.5 -47.5q0 -198 -51 -198h-203v-293q0 -45 8.5 -63.5t36.5 -18.5q12 0 30 6 t48.5 18t52.5 19q12 3 26 -13.5t27 -46t21.5 -52t15.5 -46.5q8 -31 4 -45q-3 -24 -26 -37q-70 -41 -130 -57.5t-155 -16.5q-250 0 -250 314v332h-352q-49 0 -80.5 -1t-73.5 -5t-68 -13t-51 -23.5t-37 -38t-12 -55.5v-108q0 -25 10.5 -45t31 -33t43.5 -22.5t56 -15t60.5 -8.5 t64.5 -5q130 -10 252 8q22 0 44.5 -26.5t36.5 -56t27.5 -62.5t14.5 -35q6 0 6 -8q0 -22 -28 -39t-73.5 -27.5t-90.5 -16t-92 -8.5q-31 -2 -82 -2q-91 1 -172 14.5t-158 44.5t-132 77.5t-88.5 118.5t-33.5 163z" />
<glyph unicode="'" horiz-adv-x="454" d="M86 942v504q0 28 75 40.5t138 12.5q28 0 49 -18t21 -41v-492q0 -22 -21 -39.5t-49 -17.5q-62 0 -137.5 12t-75.5 39z" />
<glyph unicode="(" horiz-adv-x="706" d="M117 655q0 268 98.5 531.5t282.5 429.5q21 18 64.5 -12.5t72 -76t12.5 -63.5q-118 -131 -174.5 -354.5t-56.5 -454.5t56.5 -454.5t174.5 -354.5q16 -18 -12.5 -63t-72 -75.5t-64.5 -12.5q-184 166 -282.5 429t-98.5 531z" />
<glyph unicode=")" horiz-adv-x="706" d="M106 -154q117 131 173.5 355t56.5 454t-56.5 454t-173.5 355q-17 18 12 63.5t73 76t65 12.5q123 -112 210.5 -276t129 -338t41.5 -347t-41.5 -347t-129 -337.5t-210.5 -275.5q-21 -18 -65 12.5t-73 75.5t-12 63z" />
<glyph unicode="*" horiz-adv-x="1050" d="M129 1188q0 6 7 27.5t19.5 48t34.5 47t46 20.5q28 0 59 -18q5 -2 43 -18t59 -25l-8 116q0 67 14 89q8 12 24 17.5t30 6t51 0.5h17q45 0 63 -3.5t28 -20.5q15 -24 15 -89l-10 -116l104 43q27 18 59 18q43 0 75 -60t32 -83q0 -25 -5 -41.5t-18 -26t-23.5 -13t-33.5 -9.5 l-121 -39l90 -109l3 -3q17 -17 19 -39l1 -17q0 -26 -36 -56t-69.5 -46.5t-38.5 -16.5q-54 0 -92 62l-59 96q-5 -8 -21 -38.5t-25.5 -45t-26 -35.5t-35 -30t-40.5 -9q-5 0 -39 16.5t-70 46.5t-36 56q0 19 3.5 30t7 15.5t14.5 13.5l90 109l-121 39q-44 10 -62 27t-18 63z" />
<glyph unicode="+" horiz-adv-x="1314" d="M123 479q0 201 47 201h350v350q0 21 21.5 34t48.5 13q201 0 201 -49v-348h350q22 0 34.5 -20.5t12.5 -47.5q0 -202 -49 -202h-348v-353q0 -21 -20.5 -33t-47.5 -12q-203 0 -203 47v351h-352q-21 0 -33 21t-12 48z" />
<glyph unicode="," horiz-adv-x="641" d="M16 -266l109 397q15 47 250 47q32 0 55 -18t23 -39q0 -17 -9 -29l-272 -358q-31 -37 -62.5 -48.5t-74.5 -11.5q-34 0 -19 60z" />
<glyph unicode="-" horiz-adv-x="813" d="M96 524q0 201 47 201h531q21 0 33 -20.5t12 -47.5q0 -202 -47 -202h-531q-19 0 -32 21.5t-13 47.5z" />
<glyph unicode="." horiz-adv-x="462" d="M86 27v278q0 29 71.5 40t141.5 11q29 0 52.5 -16.5t23.5 -40.5v-266q0 -24 -23.5 -40t-52.5 -16q-27 0 -57 1.5t-68.5 6.5t-63 15.5t-24.5 26.5z" />
<glyph unicode="/" horiz-adv-x="1077" d="M111 -8l661 1528q7 17 32.5 24t51.5 2q16 -3 43 -11.5t57.5 -20.5t49 -28.5t12.5 -31.5l-658 -1528q-7 -18 -33 -25.5t-53 -2.5q-21 5 -45 13t-56 21t-50 29t-12 31z" />
<glyph unicode="0" horiz-adv-x="1355" d="M102 545v379q0 280 141.5 425.5t430.5 145.5h6q288 0 429.5 -146t141.5 -425v-379q0 -279 -141.5 -424.5t-429.5 -145.5h-6q-572 0 -572 570zM406 592q0 -174 61 -265t207 -91h6q146 0 207 91t61 265v287q0 174 -61 266t-207 92h-6q-146 0 -207 -92t-61 -266v-287z" />
<glyph unicode="1" horiz-adv-x="817" d="M98 1223l275 235q22 17 69.5 27t79.5 12t58 2q28 0 52.5 -16t24.5 -35v-1407q0 -25 -22 -45.5t-51 -20.5q-60 0 -139.5 14t-79.5 42v1089l-101 -90q-14 -12 -67.5 15.5t-90.5 68.5q-59 66 -8 109z" />
<glyph unicode="2" horiz-adv-x="1175" d="M88 70q0 36 15 107.5t34 96.5q273 275 415.5 438.5t182 234.5t39.5 128q0 156 -225 156q-62 0 -270 -29q-8 -1 -16.5 5t-16 19.5t-13.5 27.5t-12 34.5t-9.5 33.5t-8.5 32.5t-6 23.5q-7 29 1 50.5t33 25.5q170 41 316 41q109 0 201 -23t167.5 -70.5t118.5 -131t43 -195.5 q0 -77 -39.5 -163t-165.5 -246t-356 -402h574q21 0 36 -21t15 -48q0 -25 -1.5 -51.5t-5.5 -62.5t-14.5 -58.5t-25.5 -22.5h-953q-27 0 -40 22.5t-13 47.5z" />
<glyph unicode="3" horiz-adv-x="1130" d="M76 70q0 34 27 113t59 79q102 -22 235 -22q44 0 77.5 1.5t74 6t69 13.5t54 23.5t38.5 38t13 54.5v108q0 42 -19.5 70t-57 42t-78 19t-97.5 5h-76q-27 0 -43 71.5t-16 124.5q0 29 13.5 49.5t35.5 20.5h59q56 0 99 6t79.5 19.5t56 40.5t19.5 65v76q0 80 -60.5 109.5 t-213.5 29.5q-90 0 -234 -23q-30 -4 -55.5 74.5t-25.5 122.5q0 27 31.5 45.5t82.5 27t97.5 12t95.5 3.5q140 0 242.5 -20t181.5 -67t119 -129.5t40 -201.5v-43q0 -95 -44 -165.5t-103 -102.5q68 -34 121 -114t53 -183v-78q0 -92 -34.5 -164.5t-92 -119t-136.5 -77 t-162.5 -43t-176.5 -12.5q-64 0 -135.5 6.5t-142 29.5t-70.5 59z" />
<glyph unicode="4" horiz-adv-x="1210" d="M16 362q0 137 41 187l701 913q15 19 68 27t98 8q23 0 40 -11t17 -30v-893h141q24 0 39 -20.5t15 -48.5q0 -26 -1.5 -53.5t-6 -63t-15 -58t-25.5 -22.5h-147v-264q0 -25 -22.5 -41.5t-51.5 -16.5q-28 0 -58.5 1.5t-70.5 6.5t-65 15.5t-25 26.5v272h-627q-20 0 -32.5 19.5 t-12.5 45.5zM344 563h344v453z" />
<glyph unicode="5" horiz-adv-x="1226" d="M123 106q49 183 92 177q179 -39 303 -39q70 0 123 12t94.5 38.5t63.5 74.5t22 116q0 64 -8.5 102.5t-34.5 68t-74 42t-126 13.5q-99 0 -138 -39q-18 -19 -30.5 -24t-38.5 -5h-152q-26 0 -34 13.5t-5 52.5l6 73l62 652q1 17 26 27t72 14t78 5t82 1h514q22 0 36.5 -19.5 t14.5 -42.5t-2 -51.5t-7 -65.5t-16.5 -61t-27.5 -24h-492l-26 -265q62 25 137 25q250 0 368.5 -115t118.5 -377v-18q0 -135 -45 -232t-126.5 -151.5t-181 -79t-222.5 -24.5q-187 0 -391 61q-47 11 -35 65z" />
<glyph unicode="6" horiz-adv-x="1251" d="M86 459v16q2 190 58.5 353t160 288t240.5 219t309 158q52 21 80 -10q37 -43 55 -124t-10 -93q-190 -87 -314.5 -185t-160.5 -176q101 49 237 49h19q209 0 307 -121t98 -356v-18q0 -265 -126.5 -374.5t-405.5 -109.5h-15q-278 0 -405 109.5t-127 374.5zM389 459 q0 -47 4.5 -78t18 -60t39 -45.5t66.5 -26t101 -9.5h15q74 0 120.5 13.5t69.5 44t31 67t8 94.5v18q0 48 -4.5 79.5t-18 60.5t-39 45.5t-66.5 26t-101 9.5h-15q-71 -1 -115.5 -13.5t-69.5 -41.5t-34 -67.5t-10 -100.5v-16z" />
<glyph unicode="7" horiz-adv-x="1132" d="M61 1405q0 27 15.5 48.5t36.5 21.5h950q22 0 35.5 -20.5t13.5 -43.5q0 -126 -27 -170l-671 -1253q-4 -6 -12 -8.5t-20 -1t-24 4.5t-29 10.5t-29.5 13t-30.5 15t-27.5 14.5t-25.5 14t-19 11q-23 13 -32 34t3 42l571 1071h-633q-14 0 -24 23t-14 59t-5.5 63t-1.5 52z" />
<glyph unicode="8" horiz-adv-x="1314" d="M102 430q0 51 6.5 94.5t14.5 73.5t25.5 57t28.5 41.5t35 30.5t34 21.5t37 17t32 14.5q-23 8 -48.5 26t-52.5 48t-44.5 79.5t-17.5 108.5q0 93 10.5 161.5t35.5 119.5t61.5 84t92 53.5t122.5 28.5t159 8h49q229 0 341.5 -67t133.5 -242q7 -97 -2 -184q-3 -49 -21.5 -91 t-44 -68.5t-48.5 -42.5t-42 -22q6 -3 27 -11.5t31 -14t30.5 -17t32 -23t28 -29.5t26.5 -40t19.5 -50t14 -64t4.5 -78q0 -96 -13 -168.5t-42.5 -125t-70.5 -87t-103 -55t-133.5 -29t-167.5 -8.5h-49q-112 0 -192 11.5t-147 41t-107.5 80.5t-62.5 129.5t-22 187.5zM408 453 q0 -64 6 -97.5t28 -62t67.5 -39t123.5 -10.5h49q73 0 118.5 10t69 34.5t31.5 56.5t8 85q0 66 -7.5 103t-32.5 63.5t-68.5 36t-118.5 10.5h-49q-136 -1 -180.5 -40t-44.5 -150zM446 1069q0 -40 3 -63.5t13.5 -44.5t31.5 -31.5t54.5 -16.5t84.5 -6h51q63 0 99.5 7.5t55.5 29.5 t24 48.5t5 76.5q0 55 -5 83t-24.5 49t-55.5 27.5t-101 6.5h-49q-86 0 -125 -15t-50.5 -47t-11.5 -104z" />
<glyph unicode="9" horiz-adv-x="1234" d="M86 1012v16q0 136 31.5 229t99.5 149.5t164.5 80.5t236.5 24h15q139 0 235.5 -24t164.5 -80.5t100 -149.5t32 -229v-16q-2 -189 -59 -352t-160 -288.5t-241 -219.5t-310 -158q-1 0 -7.5 -2t-11.5 -3t-13.5 -1.5t-16 1t-16 6t-15.5 11.5q-36 41 -53.5 122.5t10.5 94.5 q189 87 313 185.5t160 175.5q-95 -49 -237 -49h-19q-208 0 -305.5 120.5t-97.5 356.5zM387 1012q0 -60 8 -97.5t32 -67.5t70.5 -43t120.5 -13h15q71 0 115.5 12t69 41t33.5 67.5t9 100.5v16q0 60 -7.5 96.5t-30.5 67.5t-69 44t-120 13h-15q-74 0 -120.5 -13.5t-70.5 -44 t-32 -67.5t-8 -96v-16z" />
<glyph unicode=":" horiz-adv-x="522" d="M121 23v286q0 45 213 45q30 0 53 -14.5t23 -38.5v-272q0 -24 -23.5 -39t-52.5 -15q-213 0 -213 48zM121 772v287q0 47 213 47q30 0 53 -14.5t23 -38.5v-273q0 -24 -23 -38.5t-53 -14.5q-213 0 -213 45z" />
<glyph unicode=";" horiz-adv-x="702" d="M102 -98l111 409q12 43 231 43q36 0 59 -16.5t23 -38.5q0 -16 -8 -27l-260 -370q-31 -41 -60.5 -52.5t-74.5 -9.5q-34 0 -21 60v2zM211 772v287q0 47 213 47q23 0 38 -6.5t22.5 -14t11 -25t4 -27.5t0.5 -34v-165q0 -26 -0.5 -35.5t-4 -27.5t-11 -25t-22.5 -13t-38 -6 q-213 0 -213 45z" />
<glyph unicode="&#x3c;" horiz-adv-x="1155" d="M109 422v242l935 380v-278l-557 -223l557 -224v-276z" />
<glyph unicode="=" horiz-adv-x="1318" d="M119 227v260h1083v-260h-1083zM119 651v260h1083v-260h-1083z" />
<glyph unicode="&#x3e;" horiz-adv-x="1157" d="M113 43v276l555 224l-555 223v278l938 -380v-242z" />
<glyph unicode="?" horiz-adv-x="1105" d="M133 1462q-18 64 35 76q176 41 291 41q495 0 495 -379q0 -54 -18.5 -106t-47.5 -94t-64 -82.5t-70.5 -77t-64.5 -71t-47.5 -71t-18.5 -71.5v-117q0 -81 -64 -86q-227 0 -227 49v154q0 55 32.5 120t79 123t93.5 113.5t79.5 107.5t32.5 89q0 78 -46 108.5t-144 30.5 q-50 0 -93.5 -4.5t-93.5 -13t-59 -9.5q-39 -6 -80 170zM332 29v245q0 29 73 40.5t142 11.5q26 0 42 -8.5t23 -26.5t9 -34.5t2 -43.5v-123q0 -28 -2 -44t-9 -33t-23 -25t-42 -8q-215 0 -215 49z" />
<glyph unicode="@" horiz-adv-x="1798" d="M102 592q0 164 50 302.5t133.5 233.5t193.5 162t230 98t243 31q209 0 380 -85t267.5 -231t96.5 -321q0 -96 -28.5 -191.5t-80.5 -176t-135 -131t-182 -50.5q-146 0 -221 86q-108 -75 -215 -75q-152 0 -245 91.5t-93 231.5q0 69 17 136.5t55 130.5t92 110.5t133.5 76 t175.5 28.5q83 0 148 -24.5t104 -66t59 -93t20 -109.5q0 -60 -45 -172q-8 -17 -12.5 -33.5t-5 -33t8 -26.5t26.5 -10q57 0 105 83.5t48 217.5q0 169 -137 281.5t-336 112.5q-118 0 -221.5 -38.5t-183.5 -110.5t-126 -184.5t-46 -250.5q0 -112 31.5 -196t84 -135.5t130 -83.5 t159 -44t181.5 -12q104 0 135 -78q23 -60 28 -92.5t-15 -50t-53 -21.5t-102 -4q-142 0 -264.5 22.5t-232.5 76t-187.5 134.5t-122.5 204.5t-45 279.5zM754 592q0 -45 29 -75t75 -30q77 0 129.5 72.5t52.5 155.5q0 55 -34 75.5t-91 10.5q-69 -13 -115 -77.5t-46 -131.5z" />
<glyph unicode="A" horiz-adv-x="1312" d="M18 33q0 3 5 18l483 1395q18 49 69 49q219 0 236 -51l479 -1393q4 -12 4 -18q0 -28 -30 -43t-56 -15q-222 0 -241 58l-82 266h-457l-82 -266q-17 -58 -242 -58q-28 0 -57 14.5t-29 43.5zM510 573h291l-146 474z" />
<glyph unicode="B" horiz-adv-x="1386" d="M129 47v1374q0 20 18 37t46 17h591q256 0 364.5 -105.5t108.5 -320.5v-25q0 -122 -48 -184t-119 -78q36 -10 67.5 -29t61.5 -52t47.5 -87t17.5 -123v-47q0 -223 -113.5 -323.5t-386.5 -100.5h-557q-32 0 -65 16t-33 31zM436 274h352q111 0 150 32.5t39 119.5v45 q0 85 -37 121.5t-139 36.5h-365v-355zM436 870h346q103 0 135.5 32.5t32.5 121.5v25q0 79 -33.5 114t-132.5 35h-348v-328z" />
<glyph unicode="C" horiz-adv-x="1218" d="M102 543v385q0 159 38 268t118 175t193.5 95t275.5 29h16q63 0 152.5 -11.5t172.5 -40.5t83 -67q0 -17 -18 -67.5t-44.5 -95t-44.5 -39.5q-156 47 -301 47h-16q-80 0 -134.5 -13t-89 -37t-53.5 -68t-25.5 -95t-6.5 -129v-287q0 -78 6.5 -129t25.5 -94.5t53.5 -67 t89 -36.5t134.5 -13h16q141 0 301 45q18 5 44.5 -40t44.5 -95.5t18 -67.5q0 -38 -83 -67t-172.5 -40.5t-152.5 -11.5h-16q-162 0 -275.5 29t-193.5 95t-118 175.5t-38 268.5z" />
<glyph unicode="D" horiz-adv-x="1382" d="M129 47v1374q0 20 22.5 37t51.5 17h452q162 0 276 -29t194 -95t117.5 -175.5t37.5 -268.5v-340q0 -159 -37.5 -268t-117.5 -175t-193.5 -95t-276.5 -29h-428q-32 0 -65 16t-33 31zM436 274h219q98 0 159 19t94.5 63.5t45 103.5t11.5 154v246q0 95 -11.5 154t-45 103.5 t-94.5 63.5t-159 19h-219v-926z" />
<glyph unicode="E" horiz-adv-x="1200" d="M129 47v1374q0 25 22.5 39.5t53.5 14.5h854q24 0 39.5 -22t15.5 -50q0 -25 -2 -54t-6.5 -65.5t-15 -60t-25.5 -23.5h-629v-313h527q22 0 37.5 -22t15.5 -50q0 -27 -1.5 -54.5t-5.5 -64.5t-14.5 -60.5t-25.5 -23.5h-533v-338h623q24 0 39.5 -21.5t15.5 -49.5 q0 -25 -2 -53.5t-6.5 -65t-15 -60.5t-25.5 -24h-834q-32 0 -67 16t-35 31z" />
<glyph unicode="F" horiz-adv-x="1132" d="M129 31v1390q0 23 22 38.5t52 15.5h856q24 0 39.5 -22t15.5 -50q0 -25 -2 -54t-6.5 -65.5t-15 -60t-25.5 -23.5h-629v-313h510q21 0 36 -22.5t15 -49.5t-1.5 -54.5t-5.5 -64.5t-14 -60.5t-24 -23.5h-516v-573q0 -25 -23.5 -44.5t-52.5 -19.5q-65 0 -148 14t-83 42z" />
<glyph unicode="G" horiz-adv-x="1318" d="M102 543v385q0 159 38 268t118 175t193.5 95t275.5 29h16q63 0 152.5 -11.5t172.5 -40.5t83 -67q0 -17 -18 -67.5t-44.5 -95t-44.5 -39.5q-156 47 -301 47h-16q-80 0 -134.5 -13t-89 -37t-53.5 -68t-25.5 -95t-6.5 -129v-287q0 -78 6.5 -129t25.5 -94.5t53.5 -67 t89 -36.5t134.5 -13h16q88 0 168 14v453q0 27 86.5 39t155.5 12q26 0 45 -22.5t19 -49.5v-542q0 -58 -33 -76q-177 -98 -441 -105h-16q-162 0 -275.5 29t-193.5 95t-118 175.5t-38 268.5z" />
<glyph unicode="H" horiz-adv-x="1445" d="M129 31v1407q0 29 82.5 43t148.5 14q29 0 52.5 -19t23.5 -44v-529h574v535q0 29 83 43t148 14q29 0 52.5 -19t23.5 -44v-1393q0 -25 -23.5 -44.5t-52.5 -19.5q-64 0 -147.5 14.5t-83.5 43.5v592h-574v-586q0 -25 -23.5 -44.5t-52.5 -19.5q-65 0 -148 14t-83 42z" />
<glyph unicode="I" horiz-adv-x="565" d="M129 25v1421q0 16 27 26.5t69.5 15t74 6t60.5 1.5t52.5 -15.5t23.5 -39.5v-1407q0 -25 -23.5 -41.5t-52.5 -16.5t-61 1.5t-74 6t-69 15.5t-27 27z" />
<glyph unicode="J" horiz-adv-x="567" d="M-164 -358q57 175 98 175q2 0 5 -1q68 -23 122 -23q26 0 40 14t22 58t8 127v1454q0 16 27 26.5t69.5 15t74 6t60.5 1.5t52.5 -15.5t23.5 -39.5v-1485q0 -227 -85.5 -333.5t-256.5 -106.5q-122 0 -229 45q-35 14 -35 53q0 13 4 29z" />
<glyph unicode="K" horiz-adv-x="1351" d="M129 25v1421q0 16 27 26.5t69.5 15t74 6t60.5 1.5t51.5 -15.5t22.5 -39.5v-633l510 639q19 23 66.5 34.5t82 13t91.5 1.5q88 0 88 -45q0 -32 -39 -74l-477 -598l551 -682q36 -44 36 -73q0 -48 -88 -48q-193 0 -237 52l-584 723v-717q0 -25 -22.5 -41.5t-51.5 -16.5 t-61 1.5t-74 6t-69 15.5t-27 27z" />
<glyph unicode="L" horiz-adv-x="1107" d="M129 47v1399q0 16 27 26.5t70 15t74.5 6t61.5 1.5q29 0 51.5 -15.5t22.5 -39.5v-1166h594q22 0 37.5 -22t15.5 -49t-1.5 -54.5t-5.5 -64.5t-14.5 -60.5t-25.5 -23.5h-772q-135 0 -135 47z" />
<glyph unicode="M" horiz-adv-x="2048" d="M59 57l334 1387q12 51 189 51q30 0 54.5 -14t33.5 -37l364 -969l352 969q17 51 197 51q28 0 52 -15t28 -36l326 -1387q6 -23 -1 -40.5t-22 -25.5t-29.5 -12t-27.5 -4q-210 0 -223 58l-199 872l-326 -874q-9 -25 -30 -40.5t-50 -15.5q-172 0 -192 56l-324 874l-200 -872 q-15 -58 -226 -58q-13 0 -27.5 4t-29.5 12t-22 25.5t-1 40.5z" />
<glyph unicode="N" horiz-adv-x="1515" d="M123 33v1419q0 43 225 43q40 0 80 -55l653 -930v942q0 43 242 43q28 0 45.5 -17.5t17.5 -43.5v-1405q0 -24 -22.5 -39t-50.5 -15q-63 0 -137.5 11t-94.5 37l-653 927v-911q0 -24 -24 -44t-52 -20q-64 0 -146.5 14.5t-82.5 43.5z" />
<glyph unicode="O" horiz-adv-x="1472" d="M102 545v383q0 159 38 268t118 175t193.5 95t275.5 29h16q163 0 277 -29t194 -95t118 -175t38 -268v-383q0 -159 -38 -268.5t-118 -175.5t-194 -95t-277 -29h-16q-162 0 -275.5 29t-193.5 95t-118 175.5t-38 268.5zM418 561q0 -76 7 -124.5t25.5 -87t54 -58.5t88.5 -29.5 t134 -9.5h16q101 0 160.5 13.5t94 51.5t46 93.5t11.5 150.5v350q0 63 -4.5 106.5t-17.5 80t-34.5 58.5t-57.5 37.5t-83.5 21.5t-114.5 6h-16q-67 0 -114.5 -6t-83 -21.5t-56.5 -37t-33.5 -58.5t-17 -80t-4.5 -107v-350z" />
<glyph unicode="P" horiz-adv-x="1292" d="M129 27v1394q0 26 29.5 40t66.5 14h449q150 0 248 -19.5t169 -70t102.5 -139.5t31.5 -226v-59q0 -140 -30 -228.5t-100.5 -139t-168 -69t-252.5 -18.5h-240v-477q0 -24 -22.5 -39t-53.5 -15q-26 0 -58.5 2t-74 7t-69 16t-27.5 27zM434 780h240q77 0 120 6.5t70 28 t35 54.5t8 92v59q0 57 -8.5 89.5t-34.5 54.5t-70 29t-120 7h-240v-420z" />
<glyph unicode="Q" horiz-adv-x="1472" d="M102 567v361q0 159 38 268t118 175t193.5 95t275.5 29h16q163 0 277 -29t194 -95t118 -175t38 -268v-383q0 -191 -56.5 -311.5t-165.5 -179t-282 -72.5q0 -119 47 -119q23 0 140 22q22 4 46 -25t49 -76t30 -54q10 -20 10 -42q0 -30 -54 -56q-55 -26 -123.5 -39 t-123.5 -13q-75 0 -131.5 20t-92 55t-57.5 88t-30.5 111.5t-8.5 133.5q-165 18 -265.5 80.5t-150 184t-49.5 314.5zM418 594q0 -77 7 -128.5t26 -95t53.5 -68t89 -37.5t133.5 -13h16q79 0 134 13t90 37.5t54.5 68t26.5 95t7 128.5v285q0 77 -7 128.5t-26.5 95t-54.5 68 t-90 37.5t-134 13h-16q-79 0 -133.5 -13t-89 -37.5t-53.5 -68t-26 -95t-7 -128.5v-285z" />
<glyph unicode="R" horiz-adv-x="1318" d="M129 27v1394q0 24 22.5 39t53.5 15h469q150 0 248 -19.5t169 -70t102.5 -139.5t31.5 -226v-59q0 -191 -62.5 -289.5t-201.5 -134.5l268 -449q24 -44 24 -65q0 -27 -34 -37.5t-62 -10.5q-201 0 -233 54l-291 477h-199v-477q0 -24 -22.5 -39t-53.5 -15q-26 0 -58.5 2t-74 7 t-69 16t-27.5 27zM434 780h256q61 0 98.5 5t62.5 15t36.5 33t15.5 51t4 77v59q0 60 -6 91t-29 53.5t-64.5 29t-117.5 6.5h-256v-420z" />
<glyph unicode="S" horiz-adv-x="1132" d="M57 137q2 5 8.5 23.5t11.5 32.5t13.5 34.5t16 35t16 28t18 20t17.5 4.5q260 -61 368 -61q98 0 158.5 30t60.5 95q0 48 -35 89.5t-91 75t-124 67.5t-136 76.5t-124 93t-91 126t-35 166.5q0 97 30 172.5t78.5 121.5t118 75.5t141 41t154.5 11.5q70 0 174 -13.5t166 -43.5 q27 -13 38.5 -36t0.5 -52q-8 -29 -14.5 -49t-19.5 -48.5t-26.5 -44.5t-34.5 -25.5t-45 -2.5q-144 41 -235 41q-53 0 -100.5 -10.5t-83 -38t-35.5 -66.5q0 -46 35 -85.5t91.5 -71.5t124 -65.5t135.5 -76.5t124.5 -95t91.5 -129t35 -171q0 -101 -28 -178.5t-75 -126 t-116 -78.5t-143.5 -42t-164.5 -12q-105 0 -226 19.5t-214 58.5q-34 14 -34 52q0 14 5 32z" />
<glyph unicode="T" horiz-adv-x="1228" d="M12 1270q0 25 2 53.5t6.5 65t15 60.5t25.5 24h1100q23 0 39.5 -22.5t16.5 -49.5q0 -64 -11 -133.5t-39 -69.5h-399v-1165q0 -25 -23.5 -41.5t-52.5 -16.5q-28 0 -60 1.5t-74 6t-69.5 15.5t-27.5 27v1173h-393q-23 0 -39.5 22.5t-16.5 49.5z" />
<glyph unicode="U" horiz-adv-x="1509" d="M121 543v895q0 29 82.5 43t148.5 14q28 0 52 -19.5t24 -43.5v-840q0 -95 12.5 -154.5t47 -104t96.5 -63t161 -18.5h17q99 0 162 18.5t97.5 63t47 104t12.5 154.5v846q0 29 82.5 43t149.5 14q28 0 52 -19.5t24 -43.5v-889q0 -159 -37.5 -268.5t-117.5 -175.5t-194.5 -95 t-277.5 -29h-17q-162 0 -275.5 29t-193.5 95t-117.5 175.5t-37.5 268.5z" />
<glyph unicode="V" horiz-adv-x="1271" d="M12 1454q5 16 23.5 25t34.5 12.5t32 3.5q230 0 240 -57l303 -983l295 993q3 15 31 25.5t69 14.5t71 5.5t58 1.5q16 0 32 -3.5t34.5 -12.5t23.5 -25t-2 -41l-483 -1405q-7 -15 -25.5 -24t-39.5 -9q-198 0 -209 33l-486 1405q-7 25 -2 41z" />
<glyph unicode="W" horiz-adv-x="2068" d="M27 1432q0 31 23 49t65 18q63 0 139.5 -14.5t81.5 -48.5l282 -1063l263 1063q8 34 83 48.5t138 14.5q71 0 88 -63l278 -1063l267 1063q8 34 83 48.5t138 14.5q42 0 65 -18t23 -49q0 -19 -6 -37l-430 -1364q-19 -56 -74 -56q-65 0 -134.5 11.5t-78.5 40.5l-287 934 l-280 -930q-16 -56 -74 -56q-65 0 -134.5 11.5t-78.5 40.5l-434 1368q-6 18 -6 37z" />
<glyph unicode="X" horiz-adv-x="1359" d="M76 2q-7 10 -7 26q0 24 19 58l404 655l-402 643q-19 33 -19 56q1 14 9 26q20 28 80 29q35 0 75 -2t91.5 -12t62.5 -27l293 -467l291 467q11 17 63 27t92.5 12t75.5 2q58 -1 78 -29q8 -11 8 -26q0 -23 -18 -56l-400 -643l404 -655q19 -34 19 -58q1 -16 -7 -26 q-20 -28 -80 -27q-36 0 -76 2t-92 12.5t-63 28.5l-295 478l-295 -478q-11 -18 -63 -28.5t-92 -12.5t-76 -2q-61 -1 -80 27z" />
<glyph unicode="Y" horiz-adv-x="1286" d="M36 1468q20 27 81 27q36 0 76 -2t92.5 -13t62.5 -30l295 -547l297 547q10 19 62 30t92 13t75 2q61 0 81 -27q7 -10 7 -25q0 -24 -18 -59l-442 -794v-557q0 -25 -23.5 -41.5t-52.5 -16.5q-27 0 -58.5 1.5t-73.5 6t-69.5 15.5t-27.5 27v565l-445 794q-18 35 -18 59 q0 15 7 25z" />
<glyph unicode="Z" horiz-adv-x="1312" d="M70 70q0 168 34 198l725 932h-634q-14 0 -24 23.5t-14 60.5t-5.5 64.5t-1.5 54.5t15 49.5t36 22.5h975q22 0 36.5 -22t14.5 -50q0 -44 -8 -110t-25 -89l-723 -930h735q23 0 39.5 -21.5t16.5 -49.5q0 -65 -11 -134t-39 -69h-1089q-23 0 -38 21.5t-15 48.5z" />
<glyph unicode="[" horiz-adv-x="653" d="M123 -248v1698q0 33 9.5 42t45.5 9h363q24 0 37.5 -19.5t13.5 -47.5q0 -24 -1.5 -50t-5.5 -60.5t-13 -56.5t-23 -22h-139v-1294h141q13 0 22 -22.5t12.5 -58.5t5 -63.5t1.5 -52.5q0 -24 -15.5 -41.5t-39.5 -17.5h-371q-27 0 -35 10.5t-8 46.5z" />
<glyph unicode="\" horiz-adv-x="985" d="M39 1440q-6 14 12 30t48.5 29t55.5 21.5t44 13.5q25 6 51.5 -2.5t36.5 -28.5l657 -1519q6 -15 -11.5 -31t-50 -29t-57 -21.5t-45.5 -13.5q-26 -5 -51.5 2.5t-32.5 26.5z" />
<glyph unicode="]" horiz-adv-x="645" d="M68 -246q0 197 41 197h141v1294h-139q-43 0 -43 189q0 28 13.5 47.5t35.5 19.5h364q37 0 46.5 -8.5t9.5 -42.5v-1698q0 -36 -8.5 -46.5t-36.5 -10.5h-369q-24 0 -39.5 17.5t-15.5 41.5z" />
<glyph unicode="^" horiz-adv-x="1306" d="M137 799l516 585l516 -585l-206 -164l-310 375l-309 -375z" />
<glyph unicode="_" horiz-adv-x="1083" d="M35 -209q0 201 49 201h913q22 0 34.5 -20.5t12.5 -47.5q0 -203 -49 -203h-913q-21 0 -34 21t-13 49z" />
<glyph unicode="`" horiz-adv-x="688" d="M-76 1610q-64 57 11 93q58 28 151 28q78 0 107 -39l208 -273l31 -39q7 -11 9 -26t-7 -25q-42 -24 -96 -18.5t-78 28.5z" />
<glyph unicode="a" horiz-adv-x="1054" d="M72 330q0 60 5.5 101.5t24 85.5t51.5 70t91 43t139 17q108 0 276 -31v76q0 136 -106 148q-20 3 -46 3q-34 0 -77 -5q-51 -5 -141 -21q-13 -2 -25 10.5t-22 34t-17.5 42.5t-15 45t-10.5 32q-10 26 -4 51q7 23 30 29q161 41 293 41q215 0 322.5 -106t107.5 -312v-512 q0 -48 -43.5 -85t-106.5 -57.5t-144.5 -33.5t-146.5 -17t-124 -4q-92 0 -154.5 25.5t-96 75.5t-47 110.5t-13.5 143.5zM360 311q0 -64 22.5 -91t86.5 -27q102 0 190 36v174q-29 15 -82 26t-108 11q-64 0 -86.5 -28.5t-22.5 -100.5z" />
<glyph unicode="b" d="M123 158v1362q0 16 25 26.5t64 15t68.5 6t57.5 1.5q33 0 53.5 -18.5t20.5 -57.5v-465q161 74 309 74q87 0 146.5 -23.5t90 -54t46 -91t18 -103.5t2.5 -123v-330q0 -209 -67 -303t-234 -94q-419 0 -555 90q-45 33 -45 88zM412 254q0 -10 88 -22.5t162 -12.5q73 0 73 148 v331q0 146 -73 146q-157 0 -250 -49v-541z" />
<glyph unicode="c" horiz-adv-x="958" d="M102 408v262q0 215 105 323.5t330 108.5q144 0 307 -41q39 -9 39 -52q0 -10 -2 -22q-11 -59 -35 -121q-22 -57 -44 -57h-3q-195 35 -262 35q-79 0 -111.5 -53t-32.5 -160v-185q0 -107 32.5 -160t111.5 -53q72 0 262 35h3q32 0 79 -176q8 -27 -1.5 -47t-35.5 -27 q-138 -43 -307 -43q-225 0 -330 109t-105 324z" />
<glyph unicode="d" d="M117 377v330q0 56 1 88t7 79.5t17.5 75.5t34 60.5t54.5 50t80 29.5t111 12q150 0 307 -74v492q0 16 25 26.5t64.5 15t69 6t56.5 1.5q76 0 76 -76v-1335q0 -53 -47 -88q-136 -90 -553 -90q-169 0 -236 94t-67 303zM406 367q0 -148 75 -148q74 0 161 12.5t87 22.5v543 q-100 47 -248 47q-75 0 -75 -146v-331z" />
<glyph unicode="e" horiz-adv-x="1056" d="M102 440v271q0 196 106 293.5t355 97.5h23q70 0 125 -10.5t93.5 -28t66.5 -45.5t44 -57t25.5 -69t12.5 -75.5t3 -81.5v-102q0 -34 -11.5 -59.5t-47 -51.5t-96 -43.5t-164 -29.5t-244.5 -15q0 -203 160 -203q95 0 315 45q14 3 27.5 -14.5t24 -50t17 -56.5t11.5 -49 q2 -11 2 -21q0 -42 -39 -54q-174 -56 -358 -56q-216 0 -333.5 116t-117.5 349zM393 643q95 0 185 11.5t90 37.5v78q0 58 -21 82.5t-74 24.5q-88 0 -134 -37.5t-46 -137.5v-59z" />
<glyph unicode="f" horiz-adv-x="817" d="M20 877v20q0 25 2 55q2 43 14.5 86t33.5 43h125v203q0 148 92 223.5t233 75.5q138 0 246 -59q32 -19 32 -53q0 -14 -5 -31q-8 -29 -21 -64.5t-34 -67t-38 -26.5q-74 27 -153 27q-29 0 -46.5 -20t-17.5 -60v-148h207q19 0 33 -16.5t16 -38.5v-17q0 -52 -11 -115 q-12 -73 -40 -73h-205v-790q0 -27 -23.5 -41.5t-49.5 -14.5q-215 0 -215 50v796h-127q-18 0 -33 18.5t-15 37.5z" />
<glyph unicode="g" horiz-adv-x="1132" d="M109 375v332q0 209 67 302t234 93q47 0 133.5 -10t197.5 -31t190 -65.5t79 -102.5v-899q0 -67 -2 -113t-7.5 -96.5t-17 -83.5t-30 -66.5t-45.5 -54t-65 -37t-88 -23.5t-114 -7q-110 0 -238 19.5t-227 55.5q-24 9 -32 31.5t3 50.5q3 8 9 28.5t10 33t10.5 31t14 29.5 t17 21.5t21 14t25.5 0.5q71 -23 172.5 -40t173.5 -17q63 0 92 34t29 115v135q-163 -75 -309 -75q-87 0 -146.5 23.5t-90 54t-46 91t-18 103.5t-2.5 123zM397 369q0 -148 74 -148q157 0 250 49v539q0 15 -91 34t-159 19q-74 0 -74 -145v-348z" />
<glyph unicode="h" d="M123 25v1503q1 14 26 24t63.5 14t67.5 5.5t56 1.5q29 0 51.5 -15.5t22.5 -39.5v-492q141 76 297 76q62 0 111 -12t81.5 -31t56 -51t36 -62.5t19.5 -76t9 -81t2 -86.5v-671q0 -24 -24.5 -40t-53.5 -16q-27 0 -57 1.5t-68.5 6.5t-63 15.5t-24.5 26.5v637q0 41 -2.5 70 t-9.5 56.5t-22 41.5t-38 14q-51 0 -110 -10t-97 -22.5t-40 -20.5v-760q0 -24 -23.5 -40t-52.5 -16q-27 0 -57 1.5t-68.5 6.5t-63 15.5t-24.5 26.5z" />
<glyph unicode="i" horiz-adv-x="638" d="M121 272v783q0 47 215 47q29 0 52.5 -14.5t23.5 -36.5v-723q0 -45 8.5 -63.5t36.5 -18.5q15 0 90 22q12 4 26 -12t27 -46t21 -52.5t16 -46.5q9 -24 2 -49t-29 -35q-115 -52 -239 -52q-250 0 -250 297zM123 1282v234q0 29 72 40t141 11q30 0 53 -16.5t23 -41.5v-221 q0 -24 -23 -39.5t-53 -15.5q-27 0 -56 1.5t-68 6t-64 15t-25 26.5z" />
<glyph unicode="j" horiz-adv-x="520" d="M-168 -362q6 21 15.5 47.5t23.5 59t30.5 52t30.5 15.5q74 -21 115 -21q44 0 59 45.5t15 165.5v1053q0 47 215 47q29 0 52.5 -14.5t23.5 -36.5v-1098q0 -227 -80.5 -332.5t-247.5 -105.5q-116 0 -221 43q-35 14 -35 52q0 13 4 28zM121 1282v234q0 29 73 40t142 11 q30 0 53 -16.5t23 -41.5v-221q0 -24 -23 -39.5t-53 -15.5q-27 0 -56.5 1.5t-69 6t-64.5 15t-25 26.5z" />
<glyph unicode="k" horiz-adv-x="1046" d="M123 25v1495q0 16 25 26.5t64 15t68.5 6t57.5 1.5q33 0 53.5 -18.5t20.5 -57.5v-887l274 447q27 49 170 49q69 0 98.5 -14t26.5 -41q0 -11 -12 -39l-269 -426q10 -16 38.5 -61t43.5 -69.5t43 -69.5t45.5 -73.5t41.5 -68.5t39.5 -67.5t32 -56.5t27 -50.5t15.5 -36.5 q5 -28 -23.5 -41t-95.5 -13q-25 0 -53 2.5t-71 16.5t-56 39l-315 524v-506q0 -39 -20.5 -57.5t-53.5 -18.5q-16 0 -34.5 0.5t-44.5 2.5t-48.5 5.5t-43 8.5t-32.5 13.5t-12 19.5z" />
<glyph unicode="l" horiz-adv-x="638" d="M121 272v1248q0 16 25 26.5t64 15t68 6t56 1.5q33 0 54.5 -18.5t21.5 -57.5v-1165q0 -45 9 -63.5t36 -18.5q15 0 90 22q13 4 27.5 -12.5t27 -45t21 -53.5t14.5 -46q6 -19 6 -34q0 -36 -33 -50q-122 -52 -237 -52q-250 0 -250 297z" />
<glyph unicode="m" horiz-adv-x="1667" d="M115 25v878q0 28 41 62t110 65t175.5 51.5t222.5 20.5q58 0 115 -24.5t83 -53.5q133 78 373 78q62 0 110.5 -12t81.5 -31t56.5 -51t36.5 -63t20.5 -75.5t9.5 -81t2 -86.5v-671q0 -24 -22 -40t-51 -16q-16 0 -34 0.5t-44 2.5t-49 5.5t-43.5 8.5t-32.5 13.5t-12 19.5v628 q0 183 -70 183q-63 0 -115 -9.5t-76 -20t-24 -18.5v-757q0 -23 -25 -39.5t-53 -16.5q-16 0 -34 0.5t-43.5 2.5t-48 5.5t-43 8.5t-32.5 13.5t-12 19.5v677q0 58 -16 96t-49 38q-62 0 -115.5 -9.5t-79 -20t-25.5 -18.5v-757q0 -24 -22 -40t-51 -16q-16 0 -34 0.5t-44 2.5 t-49 5.5t-43.5 8.5t-32.5 13.5t-12 19.5z" />
<glyph unicode="n" horiz-adv-x="1126" d="M115 25v880q0 34 46.5 69t123 63.5t186.5 46.5t227 18q62 0 111 -12t81.5 -31t56 -51t36.5 -63t20 -75.5t9 -80.5t2 -87v-671q0 -24 -24.5 -40t-53.5 -16q-27 0 -57 1.5t-68.5 6.5t-63 15.5t-24.5 26.5v628q0 41 -2.5 70t-9.5 56.5t-22 42t-38 14.5q-52 0 -111.5 -9.5 t-98 -22.5t-38.5 -22v-751q0 -24 -22.5 -40t-50.5 -16q-16 0 -34 0.5t-44 2.5t-49 5.5t-43.5 8.5t-32.5 13.5t-12 19.5z" />
<glyph unicode="o" horiz-adv-x="1112" d="M102 375v315q0 123 24 202t80 126t137.5 65.5t207.5 18.5h10q126 0 207.5 -18.5t137.5 -65.5t80 -126t24 -202v-315q0 -123 -24 -202t-80 -126t-137.5 -65.5t-207.5 -18.5h-10q-126 0 -207.5 18.5t-137.5 65.5t-80 126t-24 202zM391 385q0 -98 29 -132t125 -34h22 q96 0 125 34t29 132v293q0 100 -29 134t-125 34h-22q-96 0 -125 -34t-29 -134v-293z" />
<glyph unicode="p" d="M117 -453v1346q0 58 79 102.5t190 65.5t197 31t132 10q89 0 149 -28t93.5 -85.5t47 -131.5t13.5 -179v-303q0 -80 -2.5 -123t-18 -103.5t-46 -91t-90 -54t-146.5 -23.5q-149 0 -309 75v-501q0 -24 -23 -40t-51 -16t-57.5 1.5t-68.5 6t-64 15t-25 26.5zM406 287 q93 -49 249 -49q18 0 31 7t21 23t12.5 31t6.5 42.5t2.5 44.5t0.5 50v8v189q0 121 -14 160q-18 46 -60 47q-176 0 -249 -54v-499z" />
<glyph unicode="q" d="M104 375v332q0 208 67.5 301.5t234.5 93.5q44 0 132.5 -11t198.5 -33.5t189.5 -66t79.5 -98.5v-1339q-1 -21 -24 -37.5t-50 -16.5t-56.5 1.5t-69 6t-64.5 15t-25 26.5v506q-163 -75 -309 -75q-49 0 -89 7.5t-70 18t-53 31t-38 39.5t-25.5 50t-16 54t-8.5 62t-3.5 64.5 t-0.5 68.5zM393 369q0 -148 74 -148q157 0 250 49v539q0 15 -91 34t-159 19q-74 0 -74 -145v-348z" />
<glyph unicode="r" horiz-adv-x="778" d="M115 25v880q0 38 71 84t186 79.5t226 33.5q58 0 115 -8q53 -5 53 -48q0 -8 -2 -16q-5 -27 -12 -55.5t-18.5 -63.5t-27.5 -56t-32 -19q-39 8 -78 8q-58 0 -127.5 -21.5t-69.5 -40.5v-751q0 -24 -22 -40t-51 -16q-16 0 -33.5 0.5t-43.5 2.5t-48 5.5t-42 8.5t-32 13.5 t-12 19.5z" />
<glyph unicode="s" horiz-adv-x="960" d="M70 113q13 58 36 115q21 52 43 52q2 0 5 -1q180 -48 301 -48q75 0 117 14.5t42 57.5q0 26 -27.5 49t-71.5 43.5t-97 43.5t-106.5 53.5t-97.5 68t-71.5 93.5t-27.5 124q0 72 16 127t47.5 89.5t68 57t88.5 33t96 14t104 3.5q146 0 272 -39q24 -6 35.5 -27.5t5.5 -48.5 q-4 -22 -10.5 -48.5t-17 -58.5t-24.5 -51t-28 -16q-158 33 -233 33q-67 0 -99.5 -15t-32.5 -53q0 -21 27.5 -40t72 -37.5t98 -40t107 -53t98 -71t72 -99.5t27.5 -132q0 -80 -24.5 -140t-63.5 -95.5t-98 -57.5t-118 -29.5t-132 -7.5q-80 0 -189.5 15t-179.5 39q-35 15 -35 53 q0 14 5 31z" />
<glyph unicode="t" horiz-adv-x="780" d="M31 891q0 203 51 203h104v235q0 45 215 45q29 0 51.5 -14.5t22.5 -36.5v-229h207q21 0 35 -21.5t14 -48.5q0 -26 -1.5 -53t-6 -64.5t-16 -61.5t-27.5 -24h-205v-493q0 -44 9.5 -63t35.5 -19q13 0 31 6t48 18t52 19q17 5 37 -27.5t32.5 -66.5t20.5 -64q5 -18 5 -33 q0 -36 -31 -51q-70 -39 -128 -55.5t-151 -16.5q-250 0 -250 297v549h-106q-21 0 -35 22t-14 48z" />
<glyph unicode="u" horiz-adv-x="1126" d="M115 375v678q0 16 24 26.5t63 15t67.5 6t56.5 1.5q29 0 53 -15.5t24 -39.5v-652q0 -41 2.5 -70t9.5 -56.5t22 -41.5t38 -14q51 0 111 10t98.5 22.5t38.5 20.5v787q0 16 25.5 26.5t65 15t68.5 6t56 1.5q29 0 52.5 -15.5t23.5 -39.5v-900q0 -37 -77 -77t-216 -67.5 t-293 -27.5q-62 0 -110.5 12t-81.5 31t-56 51t-35.5 62.5t-19.5 76t-8.5 81t-1.5 86.5z" />
<glyph unicode="v" horiz-adv-x="937" d="M10 1038q0 31 23 49.5t65 18.5q35 0 78 -4t91 -19.5t52 -40.5l150 -680l149 680q4 25 52.5 40.5t91.5 19.5t78 4q42 0 65 -18.5t23 -49.5q0 -16 -6 -34l-310 -973q-19 -56 -73 -56q-65 0 -135 11.5t-78 40.5l-310 977q-6 18 -6 34z" />
<glyph unicode="w" horiz-adv-x="1495" d="M14 1030q0 36 24 54t62 18q62 0 134 -11t77 -36l150 -686l153 682q11 51 183 51q64 0 73 -31l160 -702l152 686q11 47 213 47q86 0 86 -62q0 -22 -8 -43l-293 -968q-6 -24 -26.5 -39t-47.5 -15q-202 0 -215 45l-143 578l-146 -569q-8 -23 -29 -38.5t-47 -15.5 q-196 0 -211 45l-292 969q-9 21 -9 41z" />
<glyph unicode="x" horiz-adv-x="950" d="M10 25q0 18 21 55l264 475l-236 444q-20 42 -20 54q0 49 84 49q194 0 209 -41l143 -320l146 320q16 41 208 41q82 0 82 -49q0 -17 -18 -54l-236 -444l265 -475q18 -38 18 -55q0 -50 -84 -50q-57 0 -129.5 10t-85.5 31l-166 340l-166 -340q-15 -21 -86.5 -31t-126.5 -10 q-17 0 -34 3t-34.5 15t-17.5 32z" />
<glyph unicode="y" d="M127 397v656q0 21 24.5 35t55.5 14q25 0 54.5 -2t67.5 -7t62.5 -17t24.5 -29v-623q0 -41 2.5 -70t9 -56.5t20.5 -41.5t35 -14q76 0 161 19.5t87 33.5v758q0 21 23.5 35t54.5 14q26 0 54 -1.5t67.5 -6.5t64.5 -17t25 -30v-1031q0 -63 -1 -105.5t-5.5 -92t-12 -81.5 t-20.5 -67t-32.5 -56.5t-46.5 -42.5t-63 -32t-82.5 -17.5t-103.5 -6.5q-278 0 -460 73q-36 15 -36 48q0 15 7 34q1 3 10 30.5t16 44.5t18 40t23 35t25 12q3 0 9 -1t9 -1q65 -23 163.5 -40t172.5 -17q63 0 92 34t29 115v135q-164 -82 -293 -82q-50 0 -91 8.5t-71 21t-54 35.5 t-39.5 44.5t-26.5 54.5t-16.5 58.5t-8.5 65.5t-3.5 66t-0.5 68z" />
<glyph unicode="z" horiz-adv-x="1058" d="M57 111q0 96 56 163l446 549h-342q-34 0 -56 8.5t-34 21t-18 40t-7.5 52t-1.5 71.5q0 19 10 32t22 19.5t35 9.5t35.5 3.5t37.5 0.5h661q19 0 35 -16.5t16 -36.5q0 -49 -9.5 -110.5t-33.5 -90.5l-452 -569h493q21 0 36 -21t15 -47q0 -24 -1.5 -50t-5.5 -61t-14 -57 t-24 -22h-839q-36 0 -48 25.5t-12 85.5z" />
<glyph unicode="{" horiz-adv-x="843" d="M109 666q0 24 10 40.5t28 16.5q156 0 156 176v348q0 125 67.5 209t204.5 84q181 0 181 -61q0 -67 -17 -141t-34 -74q-56 0 -80.5 -24t-24.5 -103q0 -45 1 -101t1 -118q0 -115 -40 -194t-140 -120q180 -50 180 -293q0 -73 -1 -128.5t-1 -90.5q0 -79 23.5 -103t78.5 -24 q18 0 35 -73t17 -142q0 -61 -181 -61q-70 0 -123.5 24t-84.5 66t-46.5 93t-15.5 110v348q0 30 -7 58.5t-23.5 56t-49 44.5t-76.5 17q-38 0 -38 160z" />
<glyph unicode="|" horiz-adv-x="526" d="M131 -330v1794q0 47 205 47q29 0 50.5 -14.5t21.5 -36.5v-1786q0 -22 -21.5 -36.5t-50.5 -14.5q-205 0 -205 47z" />
<glyph unicode="}" horiz-adv-x="825" d="M100 -250q0 68 18 141.5t36 73.5q54 0 78 24.5t24 102.5q0 35 -1 90.5t-1 128.5q0 243 178 293q-99 41 -138.5 120t-39.5 194q0 62 1 118t1 101q0 79 -24.5 103t-79.5 24q-17 0 -34.5 74t-17.5 141q0 61 181 61q137 0 204.5 -84t67.5 -209v-348q0 -176 154 -176 q38 0 38 -57q0 -160 -36 -160q-45 0 -77.5 -17t-48.5 -44.5t-23 -56t-7 -58.5v-348q0 -125 -67.5 -209t-204.5 -84q-181 0 -181 61z" />
<glyph unicode="~" horiz-adv-x="1347" d="M160.5 435q2.5 13 5 20t10.5 22q61 115 145.5 174.5t176.5 59.5q48 0 99.5 -17.5t89.5 -38t86.5 -38t90.5 -17.5q50 0 74 47q21 40 47 44.5t68 -17.5l92 -43q22 -10 32.5 -21.5t9 -26t-6 -25.5t-13.5 -27q-3 -5 -4 -7q-65 -104 -146 -158.5t-167 -54.5q-44 0 -99 20 t-100.5 41.5t-91 37.5t-85 7t-68.5 -50q-20 -30 -36.5 -36t-54.5 7l-127 59q-16 7 -23 16t-4.5 22z" />
<glyph unicode="&#xa2;" horiz-adv-x="944" d="M102 408v249q0 188 70.5 295.5t228.5 137.5v176q-2 0 -4.5 1.5t-1.5 2.5q0 45 215 45q21 0 45 -12q21 -17 21 -39v-172q164 -19 184 -58q8 -15 4 -45q0 -2 -6 -25.5t-9 -34.5t-9.5 -35t-12 -36.5t-13 -28t-16 -21.5t-16.5 -5q-40 6 -72 14t-49 13.5t-20 5.5q-18 6 -45 6 q-33 4 -61 4q-43 -1 -71.5 -17.5t-43.5 -48.5t-21 -70.5t-6 -91.5q0 -183 2 -207q8 -122 63 -159q34 -23 91 -23q38 -3 231 43q12 2 23.5 -11t21.5 -39t16.5 -47t14 -52t8.5 -35q3 -31 -4 -43q-4 -7 -10.5 -13t-17 -11t-20 -9t-23.5 -7.5t-24 -5.5t-26 -4.5t-23.5 -3.5 t-22 -3t-17.5 -2v-144q0 -22 -20.5 -35.5t-49.5 -13.5q-58 0 -131.5 19.5t-73.5 54.5v121q-155 29 -227 134t-72 286z" />
<glyph unicode="&#xa3;" horiz-adv-x="1175" d="M78 72q0 127 28 147q114 70 153 105q91 84 91 208q0 46 -6 93h-192q-19 0 -32.5 21.5t-13.5 47.5q0 201 48 201h149q-4 66 -4 100v86q0 114 35.5 197t101 130t148 69t186.5 22q121 0 293 -59q31 -11 31 -49q2 -32 -31.5 -108t-61.5 -83q-17 4 -61.5 15t-78 16.5 t-68.5 5.5q-191 0 -191 -156v-86q0 -51 6 -100h191q21 0 33 -20.5t12 -47.5q0 -202 -47 -202h-144q9 -55 9 -107q0 -57 -35.5 -135.5t-89.5 -118.5h561q21 0 36 -21t15 -48q0 -197 -45 -197h-983q-21 0 -32 21t-11 53z" />
<glyph unicode="&#xa5;" horiz-adv-x="1370" d="M77.5 1468.5q19.5 26.5 80.5 26.5q36 0 76 -2t92.5 -13t62.5 -30l295 -547l297 547q10 19 62 30t92 13t75 2q61 0 80.5 -26.5t-10.5 -84.5l-365 -653h158q18 0 28.5 -16t10.5 -39q0 -164 -39 -164h-235v-68h235q18 0 27.5 -15.5t9.5 -37.5q0 -166 -39 -166h-233v-192 q0 -25 -23.5 -41.5t-52.5 -16.5q-27 0 -58.5 1.5t-74 6t-70 15.5t-27.5 27v200h-237q-16 0 -26.5 18t-10.5 40q0 161 39 161h235v68h-237q-16 0 -26.5 17.5t-10.5 39.5q0 162 39 162h156l-365 653q-30 58 -10.5 84.5z" />
<glyph unicode="&#xa8;" horiz-adv-x="587" d="M-49 1350v278q0 49 215 49q30 0 52 -16t22 -41v-264q0 -24 -22 -41t-52 -17q-70 0 -142.5 11.5t-72.5 40.5zM346 1350v278q0 16 24.5 26.5t63.5 15t68 6t57 1.5q31 0 53.5 -16t22.5 -41v-264q0 -24 -23 -41t-53 -17q-69 0 -141 11.5t-72 40.5z" />
<glyph unicode="&#xa9;" horiz-adv-x="1695" d="M98 709q1 115 31 224t92 206t149.5 169.5t210.5 115t267 42.5q146 0 269 -41t209.5 -111t147 -164t89.5 -200t30 -219q1 -114 -28.5 -223.5t-91 -206.5t-149 -170t-211 -115.5t-267.5 -42.5q-147 0 -271 41t-210.5 111.5t-147.5 165t-90 200.5t-29 218zM266 713 q-1 -91 21.5 -176.5t69.5 -161.5t114.5 -133t164 -90t210.5 -33q141 0 254.5 52.5t183.5 139.5t107 195t36 225q-1 90 -24.5 175t-71 161t-114.5 132t-162 89t-207 33q-111 0 -206.5 -34t-163 -92.5t-116 -136.5t-72 -165.5t-24.5 -179.5zM477 612v215q0 188 93 265t296 77 h8q38 0 97 -7.5t116.5 -28.5t57.5 -50q0 -22 -29.5 -89t-48.5 -62q-107 29 -193 29h-8q-50 0 -80.5 -9.5t-46 -33t-20 -52.5t-4.5 -78v-137q0 -49 4.5 -77t20 -52t46 -33.5t80.5 -9.5h8q86 0 193 29q13 5 32.5 -29.5t32.5 -73t13 -51.5q0 -28 -57.5 -48.5t-116.5 -28 t-97 -7.5h-8q-202 0 -295.5 77.5t-93.5 264.5z" />
<glyph unicode="&#xab;" horiz-adv-x="1265" d="M45 580l348 415q34 37 120.5 52.5t133.5 -7.5q96 -35 -51 -213l-197 -247l219 -277q62 -74 70 -118t-41 -66q-50 -24 -137.5 -4.5t-124.5 61.5zM563 580l332 415q32 37 119 52.5t133 -7.5q95 -34 -49 -213l-183 -247l205 -277q30 -37 47 -65.5t22 -52t-5.5 -40 t-36.5 -26.5q-50 -24 -137.5 -4.5t-124.5 61.5z" />
<glyph unicode="&#xad;" horiz-adv-x="813" d="M96 524q0 201 47 201h531q21 0 33 -20.5t12 -47.5q0 -202 -47 -202h-531q-19 0 -32 21.5t-13 47.5z" />
<glyph unicode="&#xae;" horiz-adv-x="1695" d="M98 709q1 115 31 224t92 206t149.5 169.5t210.5 115t267 42.5q146 0 269 -41t209.5 -111t147 -164t89.5 -200t30 -219q1 -114 -28.5 -223.5t-91 -206.5t-149 -170t-211 -115.5t-267.5 -42.5q-147 0 -271 41t-210.5 111.5t-147.5 165t-90 200.5t-29 218zM266 713 q-1 -91 21.5 -176.5t69.5 -161.5t114.5 -133t164 -90t210.5 -33q141 0 254.5 52.5t183.5 139.5t107 195t36 225q-1 90 -24.5 175t-71 161t-114.5 132t-162 89t-207 33q-111 0 -206.5 -34t-163 -92.5t-116 -136.5t-72 -165.5t-24.5 -179.5zM524 309v830q0 13 17.5 21.5 t38.5 8.5h290q93 0 153.5 -11t108.5 -40.5t69.5 -85.5t21.5 -143v-45q0 -110 -36 -171t-108 -87l146 -234q18 -30 18 -45t-18 -23.5t-31.5 -10t-24.5 -1.5q-48 0 -106 7.5t-68 25.5l-166 258h-71v-258q0 -14 -18.5 -23.5t-39.5 -9.5q-176 0 -176 37zM758 772h112 q74 0 92.5 12.5t18.5 59.5v45q0 46 -19 59t-92 13h-112v-189z" />
<glyph unicode="&#xb4;" horiz-adv-x="720" d="M75 1405q-5 11 5 25l287 380q12 18 58 10.5t83.5 -20t58.5 -22.5q22 -13 36.5 -24.5t20.5 -20t8 -15.5t1 -11t-4 -7l-316 -301q-18 -17 -110 -20q-112 -4 -128 26z" />
<glyph unicode="&#xb8;" horiz-adv-x="604" d="M-4 -471.5q5 23.5 14 46t33 36.5t55 8q50 -12 66 -12q76 0 107.5 35t31.5 77q0 26 -23.5 38.5t-55 15t-61 5t-43.5 15.5t-1 41l106 229l234 -18l-72 -135q180 -34 143 -244q-33 -166 -225 -209q-37 -9 -104.5 -11.5t-132 8.5t-72.5 38q-5 13 0 36.5z" />
<glyph unicode="&#xbb;" horiz-adv-x="1265" d="M49.5 157.5q-6.5 25.5 10.5 61t57 84.5l205 277l-183 247q-144 179 -49 213q46 23 133 7.5t121 -52.5l332 -415l-324 -404q-37 -42 -124.5 -61.5t-137.5 4.5q-34 13 -40.5 38.5zM549.5 185.5q4.5 23.5 21.5 52t47 65.5l220 277l-197 247q-147 178 -51 213 q47 23 133.5 7.5t120.5 -52.5l348 -415l-340 -404q-37 -42 -124.5 -61.5t-137.5 4.5q-25 10 -35 26.5t-5.5 40z" />
<glyph unicode="&#x2c6;" horiz-adv-x="716" d="M-12 1446.5q-4 22.5 10 38.5l330 280q20 13 34 13q15 0 35 -13l328 -280q16 -16 12 -39t-22 -41q-38 -45 -87.5 -89t-68.5 -28l-197 170l-198 -170q-29 -27 -156 117q-16 19 -20 41.5z" />
<glyph unicode="&#x2da;" horiz-adv-x="667" d="M63 1569q0 100 72 174t199 74q86 0 149 -37t92 -92.5t29 -120.5q0 -100 -72 -173t-198 -73q-130 0 -200.5 73.5t-70.5 174.5zM246 1571q0 -33 23 -57.5t65 -24.5q41 0 64.5 25t23.5 57q0 33 -23.5 58.5t-64.5 25.5t-64.5 -25.5t-23.5 -58.5z" />
<glyph unicode="&#x2dc;" horiz-adv-x="722" d="M-10 1386q23 103 87.5 162t145.5 56q27 -2 78.5 -18t93 -30t83 -14t59.5 25q1 0 8.5 5.5t12.5 8t18.5 5.5t28 2.5t38.5 -4.5t53 -13q43 -16 35 -55q-23 -114 -99.5 -168t-174.5 -48q-20 0 -64 13.5t-80 25.5t-76 14.5t-53 -18.5q-1 0 -8.5 -5.5t-12.5 -8t-18.5 -5.5 t-28 -2.5t-38.5 4.5t-53 13q-43 16 -35 55z" />
<glyph unicode="&#x401;" horiz-adv-x="1214" d="M129 47v1374q0 25 22.5 39.5t53.5 14.5h854q24 0 39.5 -22t15.5 -50q0 -25 -2 -54t-6.5 -65.5t-15 -60t-25.5 -23.5h-629v-313h527q22 0 37.5 -22t15.5 -50q0 -27 -1.5 -54.5t-5.5 -64.5t-14.5 -60.5t-25.5 -23.5h-533v-338h623q24 0 39.5 -21.5t15.5 -49.5 q0 -25 -2 -53.5t-6.5 -65t-15 -60.5t-25.5 -24h-834q-32 0 -67 16t-35 31zM279 1618v278q0 16 24.5 26.5t63.5 15.5t69 6.5t58 1.5q30 0 51.5 -16t21.5 -42v-264q0 -24 -21.5 -40.5t-51.5 -16.5q-71 0 -143 11t-72 40zM674 1618v278q0 16 24.5 26.5t63 15.5t68.5 6.5t57 1.5 q30 0 53 -16.5t23 -41.5v-264q0 -24 -23 -40.5t-53 -16.5q-27 0 -57 2t-68.5 6.5t-63 15.5t-24.5 27z" />
<glyph unicode="&#x402;" horiz-adv-x="1308" d="M14 1270q0 25 2 53.5t6.5 65t15 60.5t25.5 24h1010q31 0 49 -1.5t44.5 -7.5t39.5 -22t13 -41t-1.5 -53.5t-6 -65.5t-15 -60.5t-25.5 -23.5h-401v-205q128 41 295 41q50 0 92 -8.5t72.5 -21t54 -35.5t39 -44t26.5 -54.5t16.5 -58.5t8.5 -65.5t3.5 -65.5t0.5 -67v-200 q0 -227 -77.5 -333t-243.5 -106q-70 0 -162 31q-48 17 -31 80q8 30 22 67t37 74t42 33q4 -1 13 -3t19 -3.5t23 -1.5q44 0 57 44.5t13 166.5v123q0 41 -2.5 70t-9.5 56.5t-22 41.5t-38 14q-74 0 -158.5 -19t-89.5 -32v-686q0 -24 -23 -40t-53 -16q-77 0 -154 12t-77 40v1171 h-393q-23 0 -39.5 22.5t-16.5 49.5z" />
<glyph unicode="&#x403;" horiz-adv-x="1112" d="M129 27q0 -16 27.5 -27t70 -15.5t74.5 -6t61 -1.5t51.5 16t22.5 40v1165h594q22 0 37.5 22t15.5 50q0 27 -1.5 54.5t-5.5 64.5t-14.5 60.5t-25.5 23.5h-772q-135 0 -135 -48v-1398zM497 1597q-5 11 5 25l286 381q12 18 58.5 10t84 -20.5t58.5 -22.5q22 -13 36.5 -24.5 t20.5 -20t8 -15.5t1 -11t-4 -7l-316 -301q-18 -17 -110 -20q-112 -4 -128 26z" />
<glyph unicode="&#x404;" horiz-adv-x="1202" d="M102 543v385q0 159 38 268t118 175t193.5 95t275.5 29h16q63 0 152.5 -11.5t172.5 -40.5t83 -67q0 -17 -18 -67.5t-44.5 -95t-44.5 -39.5q-156 47 -301 47h-16q-99 0 -160 -18t-94 -61.5t-44 -101.5t-11 -153h500q23 0 39 -22.5t16 -49.5q0 -25 -2 -54t-6.5 -65.5 t-15 -60t-25.5 -23.5h-506v-20q0 -78 6.5 -129t25.5 -94.5t53.5 -67t89 -36.5t134.5 -13h16q141 0 301 45q18 5 44.5 -40t44.5 -95.5t18 -67.5q0 -38 -83 -67t-172.5 -40.5t-152.5 -11.5h-16q-162 0 -275.5 29t-193.5 95t-118 175.5t-38 268.5z" />
<glyph unicode="&#x405;" horiz-adv-x="1189" d="M94 137q61 186 101 178q255 -61 368 -61q98 0 158.5 30t60.5 95q0 48 -34.5 92.5t-90 82t-122.5 77t-134 87t-122.5 102.5t-90 133t-34.5 169q0 90 30 158t78 108t118 65t140 33.5t154 8.5q72 0 176 -13.5t166 -43.5q59 -29 39 -88q-34 -109 -64 -144q-33 -38 -76 -26 q-144 41 -235 41q-41 0 -77 -5.5t-69.5 -17.5t-53 -35.5t-19.5 -56.5q0 -40 27 -78t71.5 -69t101 -67t115 -70.5t115 -81.5t101 -99t71.5 -124t27 -155q0 -73 -15 -131t-39.5 -98t-64 -69t-81 -46t-99 -27t-109 -13t-119.5 -3q-106 0 -226 19.5t-214 58.5q-50 20 -29 84z " />
<glyph unicode="&#x406;" horiz-adv-x="565" d="M129 25v1421q0 16 27 26.5t69.5 15t74 6t60.5 1.5t52.5 -15.5t23.5 -39.5v-1407q0 -25 -23.5 -41.5t-52.5 -16.5t-61 1.5t-74 6t-69 15.5t-27 27z" />
<glyph unicode="&#x407;" horiz-adv-x="665" d="M0 1618v278q0 16 24.5 26.5t63.5 15.5t69 6.5t58 1.5q30 0 52 -16.5t22 -41.5v-264q0 -24 -22 -40.5t-52 -16.5q-71 0 -143 11t-72 40zM195 25v1421q0 16 27 26.5t69.5 15t74 6t60.5 1.5t52.5 -15.5t23.5 -39.5v-1407q0 -25 -23.5 -41.5t-52.5 -16.5t-61 1.5t-74 6 t-69 15.5t-27 27zM395 1618v278q0 16 24.5 26.5t63 15.5t68.5 6.5t57 1.5q30 0 53 -16.5t23 -41.5v-264q0 -24 -23 -40.5t-53 -16.5q-27 0 -57 2t-68.5 6.5t-63 15.5t-24.5 27z" />
<glyph unicode="&#x408;" horiz-adv-x="561" d="M-170 -358q61 186 102 174q68 -23 123 -23q26 0 40 14t22 58t8 127v1454q0 16 27 26.5t69.5 15t74 6t60.5 1.5t52.5 -15.5t23.5 -39.5v-1485q0 -227 -85.5 -333.5t-256.5 -106.5q-122 0 -229 45q-47 19 -31 82z" />
<glyph unicode="&#x409;" horiz-adv-x="2541" d="M90 102q9 22 22 48t31.5 59t38 52t33.5 15q67 -22 119 -22q36 0 56 39t36 160l123 950q13 70 47 70h930q28 0 45.5 -17t17.5 -37v-549h365q90 0 161.5 -10.5t121.5 -28t86.5 -46t58 -60t34.5 -75t17 -84.5t4 -95v-47q0 -108 -22.5 -183t-78 -131t-153.5 -83t-244 -27 h-557q-33 0 -66.5 16t-33.5 31v1149h-455l-98 -780q-30 -227 -128.5 -334t-268.5 -107q-118 0 -223 45q-45 19 -19 82zM1589 242h303q80 0 127 7t72 27t32 45.5t7 71.5v58v35.5t-1.5 31.5t-5 29t-9 23.5t-14.5 21t-22 15.5t-30.5 12.5t-41 6.5t-52.5 3h-365v-387z" />
<glyph unicode="&#x40a;" horiz-adv-x="2232" d="M129 31v1407q0 29 82.5 43t148.5 14q29 0 52.5 -19t23.5 -44v-529h574v535q0 29 83 43t148 14q29 0 52.5 -19t23.5 -44v-560h364q125 0 214.5 -20t141 -52.5t81 -86t38.5 -107.5t9 -131v-51q0 -112 -23.5 -188t-80.5 -131t-154 -80t-242 -25h-551q-33 0 -52.5 2.5 t-35.5 15t-16 35.5v572h-574v-586q0 -25 -23.5 -44.5t-52.5 -19.5q-65 0 -148 14t-83 42zM1317 242h301q65 0 107.5 5.5t69.5 15t40.5 29t18 42t4.5 59.5v64q0 29 -0.5 44.5t-4 37t-10.5 33t-19.5 25t-31.5 19.5t-46.5 10.5t-64.5 4.5h-364v-389z" />
<glyph unicode="&#x40b;" horiz-adv-x="1509" d="M16 1270q0 26 1.5 53.5t5.5 65t14.5 61t25.5 23.5h1119q23 0 39 -22.5t16 -49.5q0 -26 -1.5 -53.5t-5.5 -65t-14.5 -61t-25.5 -23.5h-420v-338q162 45 330 45q368 0 368 -399v-475q0 -24 -24 -40t-53 -16q-27 0 -58.5 1.5t-74 6t-70 15.5t-27.5 27v432q0 74 -31 128 t-77 54q-75 0 -172.5 -18.5t-110.5 -32.5v-555q0 -25 -23.5 -41.5t-52.5 -16.5q-28 0 -60 1.5t-74 6t-69.5 15.5t-27.5 27v1173h-391q-24 0 -40 22t-16 50z" />
<glyph unicode="&#x40c;" horiz-adv-x="1398" d="M129 25v1421q0 16 27 26.5t69.5 15t74 6t60.5 1.5t51.5 -15.5t22.5 -39.5v-633l510 639q19 23 66.5 34.5t82 13t91.5 1.5q88 0 88 -45q0 -32 -39 -74l-477 -598l551 -682q36 -44 36 -73q0 -48 -88 -48q-193 0 -237 52l-584 723v-717q0 -25 -22.5 -41.5t-51.5 -16.5 t-61 1.5t-74 6t-69 15.5t-27 27zM598 1591q-5 11 4 25l287 381q12 18 58.5 10t84 -20.5t58.5 -22.5q22 -13 36.5 -24.5t20.5 -20t8 -15.5t0.5 -11t-4.5 -7l-315 -301q-18 -17 -109 -20q-113 -4 -129 26z" />
<glyph unicode="&#x40e;" horiz-adv-x="1351" d="M53 1413q-11 31 6 51t39 25.5t45 5.5q228 0 238 -57l305 -654l293 664q5 20 55 31t91.5 13.5t82.5 2.5q16 0 32 -3.5t34.5 -12.5t23.5 -25t-2 -41l-485 -1024q-99 -211 -217.5 -312.5t-280.5 -101.5q-117 0 -229 45q-48 19 -29 82q6 21 15.5 48t23.5 59.5t31 52t31 14.5 q76 -22 125 -22q40 0 70 12t70.5 58t84.5 131zM324 1905q0 20 19 31.5t44 11.5q180 0 180 -39q0 -48 32.5 -75.5t76.5 -27.5t76 27.5t32 75.5q0 39 181 39q25 0 44 -11.5t19 -31.5q0 -81 -30 -146t-80.5 -105t-112 -60.5t-129.5 -20.5t-129.5 20.5t-112 60.5t-80.5 105 t-30 146z" />
<glyph unicode="&#x40f;" horiz-adv-x="1519" d="M129 47v1399q0 16 27 26.5t70 15t74.5 6t61.5 1.5q29 0 51.5 -15.5t22.5 -39.5v-1166h647v1172q0 16 27.5 26.5t70.5 15t74 6t60 1.5t52.5 -15.5t23.5 -39.5v-1237q0 -26 -1.5 -54.5t-6 -65t-15 -60t-25.5 -23.5h-430v-254q0 -24 -23 -39.5t-52 -15.5t-60 1.5t-74 6 t-70.5 15t-27.5 26.5v260h-342q-135 0 -135 47z" />
<glyph unicode="&#x410;" horiz-adv-x="1357" d="M39 33q0 6 4 18l483 1395q18 49 70 49q218 0 235 -51l480 -1393q4 -12 4 -18q0 -28 -30 -43t-56 -15q-223 0 -242 58l-82 266h-456l-82 -266q-17 -58 -242 -58q-28 0 -57 14.5t-29 43.5zM530 573h291l-145 474z" />
<glyph unicode="&#x411;" horiz-adv-x="1386" d="M129 47v1374q0 20 18 37t46 17h870q20 0 32.5 -21.5t12.5 -48.5q0 -207 -47 -207h-625v-328h365q104 0 183.5 -13.5t131.5 -41t86 -61.5t51.5 -82t24 -94t6.5 -107v-47q0 -107 -24 -182.5t-80 -131.5t-154 -83t-242 -27h-557q-32 0 -65 16t-33 31zM436 274h301 q106 0 157.5 15.5t67 45.5t15.5 91v45q0 41 -5 66t-22 48t-53.5 33.5t-95.5 10.5h-365v-355z" />
<glyph unicode="&#x412;" horiz-adv-x="1386" d="M129 47v1374q0 20 18 37t46 17h591q256 0 364.5 -105.5t108.5 -320.5v-25q0 -122 -48 -184t-119 -78q36 -10 67.5 -29t61.5 -52t47.5 -87t17.5 -123v-47q0 -223 -113.5 -323.5t-386.5 -100.5h-557q-32 0 -65 16t-33 31zM436 274h352q111 0 150 32.5t39 119.5v45 q0 85 -37 121.5t-139 36.5h-365v-355zM436 870h346q103 0 135.5 32.5t32.5 121.5v25q0 79 -33.5 114t-132.5 35h-348v-328z" />
<glyph unicode="&#x413;" horiz-adv-x="1101" d="M129 51v1399q0 45 135 45h772q15 0 25.5 -23.5t14.5 -60.5t5.5 -64.5t1.5 -54.5t-15.5 -49t-37.5 -22h-594v-1164q0 -25 -22.5 -41t-51.5 -16q-28 0 -61 2t-75 6.5t-69.5 15.5t-27.5 27z" />
<glyph unicode="&#x414;" horiz-adv-x="1732" d="M80 233q0 28 10.5 37t46.5 9h96q71 0 130 60.5t96 154.5t62.5 213t36.5 232t11 216v133q0 207 45 207h738q133 0 133 -45v-1171h166q35 0 46 -10t11 -48v-551q0 -23 -25.5 -35t-66.5 -10q-217 0 -217 39v336h-1012v-336q0 -13 -28 -22t-71 -12.5t-74.5 -5t-57.5 -1.5 t-51 16t-25 39v555zM621 279h557v942h-301v-117q0 -324 -72.5 -541t-183.5 -284z" />
<glyph unicode="&#x415;" horiz-adv-x="1214" d="M129 47v1374q0 24 22.5 39t53.5 15h854q24 0 39.5 -21.5t15.5 -50.5q0 -25 -2 -54t-6.5 -65.5t-15 -60t-25.5 -23.5h-629v-313h527q22 0 37.5 -22t15.5 -50q0 -27 -1.5 -54.5t-5.5 -64.5t-14.5 -60.5t-25.5 -23.5h-533v-338h623q24 0 39.5 -21.5t15.5 -49.5 q0 -25 -2 -53.5t-6.5 -65t-15 -60.5t-25.5 -24h-834q-32 0 -67 16t-35 31z" />
<glyph unicode="&#x416;" horiz-adv-x="2267" d="M74 23q0 29 39 73l540 633q-42 38 -71.5 94.5t-42.5 108t-36 105.5t-53 93t-93 64t-156 25h-45q-50 0 -50 196q0 26 13.5 47t34.5 21h47q111 0 196.5 -18t140 -49.5t94 -72t63.5 -87t43 -93.5t38.5 -92.5t43.5 -82.5t64 -65.5t95 -39.5v563q0 16 27 26.5t69.5 15t74 6 t60.5 1.5t52.5 -15.5t23.5 -39.5v-557q54 12 93.5 40.5t63 66t42.5 83t38 92.5t43 93t64 86.5t94 71.5t140 49t196 18h47q22 0 34.5 -20.5t12.5 -47.5q0 -196 -49 -196h-45q-93 0 -156 -25t-93 -63.5t-53.5 -92t-36.5 -104.5t-41.5 -107t-69.5 -94l542 -637q37 -45 37 -73 q0 -48 -88 -48q-193 0 -237 52l-490 594q-50 -11 -88 -11v-577q0 -25 -23.5 -41.5t-52.5 -16.5t-61 1.5t-74 6t-69 15.5t-27 27v585q-39 0 -92 11l-486 -594q-44 -52 -239 -52q-88 0 -88 48z" />
<glyph unicode="&#x417;" horiz-adv-x="1130" d="M76 70q0 34 27 113t59 79q102 -22 235 -22q44 0 77.5 1.5t74 6t69 13.5t54 23.5t38.5 38t13 54.5v108q0 42 -19.5 70t-57 42t-78 19t-97.5 5h-76q-27 0 -43 71.5t-16 124.5q0 29 13.5 49.5t35.5 20.5h59q56 0 99 6t79.5 19.5t56 40.5t19.5 65v76q0 80 -60.5 109.5 t-213.5 29.5q-90 0 -234 -23q-30 -4 -55.5 74.5t-25.5 122.5q0 27 31.5 45.5t82.5 27t97.5 12t95.5 3.5q140 0 242.5 -20t181.5 -67t119 -129.5t40 -201.5v-43q0 -95 -44 -165.5t-103 -102.5q68 -34 121 -114t53 -183v-78q0 -92 -34.5 -164.5t-92 -119t-136.5 -77 t-162.5 -43t-176.5 -12.5q-64 0 -135.5 6.5t-142 29.5t-70.5 59z" />
<glyph unicode="&#x418;" horiz-adv-x="1564" d="M125 18v1420q0 29 82 43t147 14q28 0 52 -19.5t24 -43.5v-912l653 928q20 26 94 36.5t138 10.5q28 0 51 -15t23 -38v-1405q0 -26 -18 -44t-46 -18q-242 0 -242 43v943l-653 -930q-40 -56 -80 -56q-225 0 -225 43z" />
<glyph unicode="&#x419;" horiz-adv-x="1564" d="M125 18q0 -43 225 -43q40 0 80 56l653 930v-943q0 -43 242 -43q28 0 46 18t18 44v1405q0 23 -23 38t-51 15q-64 0 -138 -10.5t-94 -36.5l-653 -928v912q0 24 -24 43.5t-52 19.5q-65 0 -147 -14t-82 -43v-1420zM428 1905q0 20 19 31.5t45 11.5q180 0 180 -39 q0 -48 32 -75.5t76 -27.5t76.5 27.5t32.5 75.5q0 39 180 39q26 0 45 -11.5t19 -31.5q0 -81 -30 -146t-80.5 -105t-112.5 -60.5t-130 -20.5t-129.5 20.5t-112 60.5t-80.5 105t-30 146z" />
<glyph unicode="&#x41a;" horiz-adv-x="1361" d="M129 25v1421q0 16 27 26.5t69.5 15t74 6t60.5 1.5q38 0 57 -18t19 -37v-557q54 12 93.5 40.5t63 66t42.5 82.5t38 92t43 93t64 86t94 71t140 49t196 18h47q25 0 37 -25q10 -23 11 -77.5t-12 -105.5t-38 -56h-45q-93 0 -156 -24.5t-93 -63t-53.5 -92t-36.5 -104 t-41.5 -106.5t-69.5 -94l543 -637q36 -44 36 -73q0 -48 -88 -48q-39 0 -65 1t-64.5 5.5t-66.5 16t-43 29.5l-488 594q-49 -11 -88 -11v-577q0 -25 -23.5 -41.5t-52.5 -16.5t-61 1.5t-74 6t-69 15.5t-27 27z" />
<glyph unicode="&#x41b;" horiz-adv-x="1718" d="M90 102q9 22 22 48t31.5 59t38 52t33.5 15q67 -22 119 -22q36 0 56 39t36 160l123 950q13 70 47 70h930q28 0 45.5 -17t17.5 -37v-1386q0 -25 -23.5 -41.5t-52.5 -16.5q-28 0 -60 1.5t-74 6t-69.5 15.5t-27.5 27v1171h-455l-100 -780q-29 -227 -127 -334t-268 -107 q-118 0 -223 45q-45 19 -19 82z" />
<glyph unicode="&#x41c;" horiz-adv-x="1984" d="M129 25v1421q0 16 27 26.5t69.5 15t74 6t60.5 1.5q52 0 80 -55l561 -1041l545 1047q15 25 93.5 37t140.5 12q29 0 52 -15.5t23 -39.5v-1407q0 -25 -23 -41.5t-52 -16.5t-61 1.5t-74.5 6t-69.5 15.5t-27 27v811l-420 -805q-29 -56 -79 -56q-173 0 -193 56l-420 811v-809 q0 -25 -23.5 -41.5t-52.5 -16.5t-61 1.5t-74 6t-69 15.5t-27 27z" />
<glyph unicode="&#x41d;" horiz-adv-x="1445" d="M129 31v1407q0 29 82.5 43t148.5 14q29 0 52.5 -19t23.5 -44v-529h574v535q0 29 83 43t148 14q29 0 52.5 -19t23.5 -44v-1393q0 -25 -23.5 -44.5t-52.5 -19.5q-64 0 -147.5 14.5t-83.5 43.5v592h-574v-586q0 -25 -23.5 -44.5t-52.5 -19.5q-65 0 -148 14t-83 42z" />
<glyph unicode="&#x41e;" horiz-adv-x="1472" d="M102 545v383q0 159 38 268t118 175t193.5 95t275.5 29h16q163 0 277 -29t194 -95t118 -175t38 -268v-383q0 -159 -38 -268.5t-118 -175.5t-194 -95t-277 -29h-16q-162 0 -275.5 29t-193.5 95t-118 175.5t-38 268.5zM418 594q0 -77 7 -128.5t26 -95t53.5 -68t89 -37.5 t133.5 -13h16q79 0 134 13t90 37.5t54.5 68t26.5 95t7 128.5v285q0 77 -7 128.5t-26.5 95t-54.5 68t-90 37.5t-134 13h-16q-79 0 -133.5 -13t-89 -37.5t-53.5 -68t-26 -95t-7 -128.5v-285z" />
<glyph unicode="&#x41f;" horiz-adv-x="1519" d="M129 27v1423q0 45 135 45h1079q15 0 25.5 -23.5t15 -60t6 -65t1.5 -54.5v-1259q0 -25 -23.5 -41.5t-52.5 -16.5q-72 0 -152 11.5t-80 40.5v1194h-647v-1188q0 -25 -22.5 -41.5t-51.5 -16.5q-74 0 -153.5 11.5t-79.5 40.5z" />
<glyph unicode="&#x420;" horiz-adv-x="1292" d="M129 27v1394q0 26 29.5 40t66.5 14h449q150 0 248 -19.5t169 -70t102.5 -139.5t31.5 -226v-59q0 -140 -30 -228.5t-100.5 -139t-168 -69t-252.5 -18.5h-240v-477q0 -24 -22.5 -39t-53.5 -15q-26 0 -58.5 2t-74 7t-69 16t-27.5 27zM434 780h240q77 0 120 6.5t70 28 t35 54.5t8 92v59q0 57 -8.5 89.5t-34.5 54.5t-70 29t-120 7h-240v-420z" />
<glyph unicode="&#x421;" horiz-adv-x="1202" d="M102 543v385q0 159 38 268t118 175t193.5 95t275.5 29h16q63 0 152.5 -11.5t172.5 -40.5t83 -67q0 -17 -18 -67.5t-44.5 -95t-44.5 -39.5q-156 47 -301 47h-16q-80 0 -134.5 -13t-89 -37t-53.5 -68t-25.5 -95t-6.5 -129v-287q0 -78 6.5 -129t25.5 -94.5t53.5 -67 t89 -36.5t134.5 -13h16q141 0 301 45q18 5 44.5 -40t44.5 -95.5t18 -67.5q0 -38 -83 -67t-172.5 -40.5t-152.5 -11.5h-16q-162 0 -275.5 29t-193.5 95t-118 175.5t-38 268.5z" />
<glyph unicode="&#x422;" horiz-adv-x="1253" d="M25 1270q0 25 2 53.5t6.5 65t15 60.5t25.5 24h1100q23 0 39 -22.5t16 -49.5q0 -25 -2 -53.5t-6.5 -65t-15 -60.5t-25.5 -24h-400v-1165q0 -25 -23 -41.5t-52 -16.5q-28 0 -60 1.5t-74.5 6t-70 15.5t-27.5 27v1173h-393q-23 0 -39 22.5t-16 49.5z" />
<glyph unicode="&#x423;" horiz-adv-x="1351" d="M53 1413q-11 31 6 51t39 25.5t45 5.5q228 0 238 -57l305 -654l293 664q5 20 55 31t91.5 13.5t82.5 2.5q16 0 32 -3.5t34.5 -12.5t23.5 -25t-2 -41l-485 -1024q-99 -211 -217.5 -312.5t-280.5 -101.5q-117 0 -229 45q-48 19 -29 82q6 21 15.5 48t23.5 59.5t31 52t31 14.5 q76 -22 125 -22q40 0 70 12t70.5 58t84.5 131z" />
<glyph unicode="&#x424;" horiz-adv-x="1619" d="M102 688v109q0 150 34 255.5t104.5 172.5t172 99.5t244.5 37.5v84q0 16 27 26.5t70 15t74.5 6t60.5 1.5t52.5 -15.5t23.5 -39.5v-78q286 -12 419.5 -142.5t133.5 -422.5v-109q0 -294 -133.5 -424.5t-419.5 -142.5v-88q0 -25 -23.5 -41.5t-52.5 -16.5t-61 1.5t-74.5 6 t-69.5 15.5t-27 27v96q-287 12 -421 142.5t-134 424.5zM418 737q0 -69 5.5 -116.5t20.5 -89.5t41.5 -67.5t68.5 -42.5t103 -22v686q-75 -7 -122.5 -29t-73 -66t-34.5 -99.5t-9 -142.5v-11zM965 399q59 6 101 23t68.5 43t41.5 67.5t20.5 89t5.5 115.5v11q0 86 -9 141.5 t-34.5 100t-72.5 66.5t-121 29v-686z" />
<glyph unicode="&#x425;" horiz-adv-x="1359" d="M76 2.5q-19 27.5 12 83.5l404 655l-402 643q-31 54 -10.5 82.5t80.5 28.5q35 0 75 -2t91.5 -12t62.5 -27l293 -467l291 467q11 17 63 27t92.5 12t75.5 2q59 0 78.5 -28.5t-10.5 -82.5l-400 -643l404 -655q31 -56 11.5 -83.5t-79.5 -27.5q-36 0 -76 2t-92 12.5t-63 28.5 l-295 478l-295 -478q-11 -18 -63 -28.5t-92 -12.5t-76 -2q-61 0 -80 27.5z" />
<glyph unicode="&#x426;" horiz-adv-x="1421" d="M129 47v1399q0 16 27 26.5t70 15t74.5 6t61.5 1.5q29 0 51.5 -15.5t22.5 -39.5v-1166h543v1172q0 16 27 26.5t69 15t73 6t60 1.5q30 0 54 -15.5t24 -39.5v-1166h72q22 0 37.5 -22t15.5 -49v-527q0 -24 -24.5 -40.5t-53.5 -16.5q-27 0 -59.5 2t-74 6.5t-68.5 15.5t-27 27 v330h-840q-135 0 -135 47z" />
<glyph unicode="&#x427;" horiz-adv-x="1386" d="M70 969v477q0 16 27 26.5t69 15t73 6t60 1.5t53.5 -15t24.5 -38v-355q0 -54 13 -96.5t33 -69t52.5 -44t63 -26t73 -10.5t74 -0.5t74.5 5.5q60 3 122 18.5t68 26.5v555q0 16 27 26.5t70 15t74.5 6t60.5 1.5t52 -15.5t23 -39.5v-1409q0 -24 -24 -40t-53 -16 q-28 0 -59.5 1.5t-74 6t-69.5 15.5t-27 27v593q-110 -30 -200.5 -44.5t-194 -13.5t-205.5 24q-80 14 -136.5 49.5t-87 88.5t-43.5 113t-13 134z" />
<glyph unicode="&#x428;" horiz-adv-x="1896" d="M129 23v1423q0 16 27 26.5t70 15t74.5 6t61.5 1.5q28 0 51 -13.5t23 -35.5v-1196h363v1196q0 16 27 26.5t70 15t74.5 6t61.5 1.5q28 0 51 -13.5t23 -35.5v-1196h362v1196q0 16 27.5 26.5t70.5 15t74 6t60 1.5t52.5 -13.5t23.5 -35.5v-1264q0 -207 -47 -207h-1465 q-135 0 -135 48z" />
<glyph unicode="&#x429;" horiz-adv-x="1914" d="M129 23v1298q0 84 2 127q0 47 231 47q28 0 51 -13.5t23 -35.5v-1196h363v1196q0 16 27 26.5t70 15t74.5 6t61.5 1.5q28 0 51 -13.5t23 -35.5v-1196h362v1196q0 16 27.5 26.5t70.5 15t74 6t60 1.5t52.5 -13.5t23.5 -35.5v-1131l88 -65q22 0 37.5 -22t15.5 -50v-393 q0 -28 -0.5 -44t-4.5 -43t-11.5 -41.5t-22.5 -26t-37 -11.5q-28 0 -60.5 2t-74.5 6.5t-69 15.5t-27 27v305h-1346q-135 0 -135 48z" />
<glyph unicode="&#x42a;" horiz-adv-x="1703" d="M4 1274q0 199 43 201h643q28 0 46 -17t18 -37v-551h364q94 0 167.5 -12t124 -31.5t86.5 -52t56 -65.5t31.5 -81t15 -89.5t3.5 -98.5v-12q0 -108 -23 -184t-79 -132.5t-154.5 -84t-243.5 -27.5h-557q-32 0 -65.5 16t-33.5 31l-2 1157h-393q-21 0 -34 21t-13 49zM754 242 h301q80 0 126.5 7t72 26.5t33 45.5t7.5 72v58q0 34 -1 52.5t-6 42.5t-16.5 36.5t-30.5 24.5t-49.5 17t-72.5 5h-364v-387z" />
<glyph unicode="&#x42b;" horiz-adv-x="1992" d="M129 47v1399q0 16 27 26.5t69 15t73 6t60 1.5q31 0 54.5 -15.5t23.5 -39.5v-570h365q104 0 183.5 -13.5t131.5 -41t86 -61.5t51.5 -82t24 -94t6.5 -107v-47q0 -107 -24 -182.5t-80 -131.5t-154 -83t-242 -27h-557q-32 0 -65 16t-33 31zM436 242h301q80 0 127 7t72.5 26.5 t33 45.5t7.5 72v78q0 41 -5 66t-22 48t-53.5 33.5t-95.5 10.5h-365v-387zM1556 25v1421q0 16 27 26.5t69.5 15t73.5 6t60 1.5q31 0 54.5 -15.5t23.5 -39.5v-1407q0 -25 -23.5 -41.5t-54.5 -16.5q-28 0 -59.5 1.5t-74 6t-69.5 15.5t-27 27z" />
<glyph unicode="&#x42c;" horiz-adv-x="1302" d="M129 47v1399q0 16 27 26.5t69 15t73 6t60 1.5q31 0 54.5 -15.5t23.5 -39.5v-570h365q104 0 183.5 -13.5t131.5 -41t86 -61.5t51.5 -82t24 -94t6.5 -107v-47q0 -107 -24 -182.5t-80 -131.5t-154 -83t-242 -27h-557q-32 0 -65 16t-33 31zM436 274h301q106 0 157.5 15.5 t67 45.5t15.5 91v45q0 41 -5 66t-22 48t-53.5 33.5t-95.5 10.5h-365v-355z" />
<glyph unicode="&#x42d;" horiz-adv-x="1202" d="M51 94q0 17 18 67.5t44.5 95.5t44.5 40q160 -45 301 -45h16q82 0 137 13.5t89 37.5t52 70.5t23.5 98t5.5 134.5h-506q-47 2 -47 201q0 28 15 51t35 23h503q-2 80 -9 130t-25.5 94t-52.5 67t-87.5 36t-132.5 13h-16q-145 0 -301 -47q-18 -5 -44.5 39.5t-44.5 95t-18 67.5 q0 38 82.5 67t172 40.5t153.5 11.5h16q165 0 279 -29.5t192.5 -98t115 -180.5t36.5 -276v-368q0 -159 -37.5 -268.5t-117 -175.5t-193 -95t-275.5 -29h-16q-64 0 -153.5 11.5t-172 40.5t-82.5 67z" />
<glyph unicode="&#x42e;" horiz-adv-x="2025" d="M129 31v1407q0 29 82.5 43t148.5 14q29 0 52.5 -19t23.5 -44v-529h219v25q0 159 38 268t118 175t193.5 95t275.5 29h16q163 0 277 -29t194 -95t118 -175t38 -268v-383q0 -159 -38 -268.5t-118 -175.5t-194 -95t-277 -29h-16q-162 0 -275.5 29t-193.5 95t-118 175.5 t-38 268.5v80h-219v-586q0 -25 -23.5 -44.5t-52.5 -19.5q-65 0 -148 14t-83 42zM971 561q0 -76 7 -124.5t25.5 -87t54 -58.5t88.5 -29.5t134 -9.5h16q101 0 160.5 13.5t94 51.5t46 93.5t11.5 150.5v350q0 63 -4.5 106.5t-17.5 80t-34.5 58.5t-57.5 37.5t-83.5 21.5t-114.5 6 h-16q-67 0 -114.5 -6t-83 -21.5t-56.5 -37t-33.5 -58.5t-17 -80t-4.5 -107v-350z" />
<glyph unicode="&#x42f;" horiz-adv-x="1349" d="M135 23q0 20 25 65l268 449q-139 36 -201.5 134.5t-62.5 289.5v59q0 137 31.5 226t102.5 139.5t169 70t248 19.5h469q31 0 53.5 -15t22.5 -39v-1394q0 -29 -79.5 -40.5t-150.5 -11.5q-31 0 -53.5 15t-22.5 39v477h-198l-291 -477q-32 -54 -234 -54q-9 0 -22 1.5t-31.5 6 t-30.5 15t-12 25.5zM481 961q0 -49 4 -77t15.5 -51t36.5 -33t62.5 -15t98.5 -5h256v420h-256q-76 0 -117.5 -6.5t-64.5 -29t-29 -53.5t-6 -91v-59z" />
<glyph unicode="&#x430;" horiz-adv-x="1073" d="M84 330q0 59 5.5 101t24.5 85.5t52 70t91 43.5t138 17q113 0 277 -31v76q0 136 -105 148q-47 6 -125 -2q-46 -5 -139 -21q-13 -2 -25 10t-22.5 34.5t-17.5 42t-15 45.5t-10 32q-10 26 -4 51q7 23 29 29q161 41 292 41q215 0 324 -106.5t109 -311.5v-512q0 -59 -62.5 -101 t-160 -61t-181.5 -27t-162 -8q-93 0 -156 25.5t-96.5 75.5t-47 110.5t-13.5 143.5zM373 311q0 -66 22.5 -96.5t85.5 -30.5q101 0 191 37v191q-27 14 -81 25.5t-110 11.5q-63 0 -85.5 -32.5t-22.5 -105.5z" />
<glyph unicode="&#x431;" horiz-adv-x="1112" d="M102 371v319q0 96 18 213.5t52.5 240.5t97 224.5t140.5 144.5q90 49 252.5 76t283.5 29q35 1 46.5 -21t11.5 -63q1 -52 -20.5 -111t-37.5 -61q-76 0 -214 -24.5t-167 -39.5q-33 -19 -73 -83t-58 -136q26 23 117 23h10q126 0 207.5 -18.5t137.5 -65.5t80 -126t24 -202 v-319q0 -123 -24 -202t-80 -126t-137.5 -65.5t-207.5 -18.5h-10q-126 0 -207.5 18.5t-137.5 65.5t-80 126t-24 202zM391 381q0 -98 29 -132t125 -34h22q96 0 125 34t29 132v297q0 100 -29 134t-125 34h-22q-96 0 -125 -34t-29 -134v-297z" />
<glyph unicode="&#x432;" horiz-adv-x="1083" d="M96 37v1010q0 11 14.5 24.5t30.5 13.5h463q207 0 294 -71.5t87 -241.5v-22q0 -82 -37.5 -131t-79.5 -58q21 -8 41 -22.5t42.5 -39t36 -65t13.5 -90.5v-37q0 -111 -34.5 -176.5t-122 -100t-240.5 -34.5h-428q-26 0 -53 14t-27 27zM385 221h209q67 0 93 16t26 56v67 q0 40 -22.5 58t-84.5 18h-221v-215zM385 664h205q63 0 83.5 15.5t20.5 59.5v29q0 40 -21.5 57t-84.5 17h-203v-178z" />
<glyph unicode="&#x433;" horiz-adv-x="841" d="M96 39v1022q0 41 121 41h565q39 0 39 -193q0 -25 -11.5 -45t-29.5 -20h-395v-807q0 -18 -22.5 -29.5t-47.5 -11.5q-219 0 -219 43z" />
<glyph unicode="&#x434;" horiz-adv-x="1419" d="M59 219q0 26 7.5 32.5t39.5 6.5h82q66 0 121.5 58t89 147.5t52 190.5t18.5 194v61q0 193 41 193h573q123 0 123 -41v-803h150q26 0 33.5 -8.5t7.5 -42.5v-461q0 -19 -23 -33.5t-53 -13.5q-23 0 -52 1.5t-69.5 5t-67 12t-26.5 20.5v258h-758v-258q0 -21 -76.5 -29 t-140.5 -8q-24 0 -48 12.5t-24 32.5v473zM545 258h373v586h-160v-43q0 -444 -213 -543z" />
<glyph unicode="&#x435;" horiz-adv-x="1060" d="M102 440v271q0 196 106 293.5t355 97.5h23q70 0 125 -10.5t93.5 -28t66.5 -45.5t44 -57t25.5 -69t12.5 -75.5t3 -81.5v-102q0 -34 -11.5 -59.5t-47 -51.5t-96 -43.5t-164 -29.5t-244.5 -15q0 -203 160 -203q95 0 315 45q14 3 27.5 -14.5t24 -50t17 -56.5t11.5 -49 q11 -61 -37 -75q-174 -56 -358 -56q-216 0 -333.5 116t-117.5 349zM393 643q95 0 185 11.5t90 37.5v78q0 58 -21 82.5t-74 24.5q-88 0 -134 -37.5t-46 -137.5v-59z" />
<glyph unicode="&#x436;" horiz-adv-x="1691" d="M25 20q0 26 30 64l383 455q-21 28 -38 66t-26.5 68.5t-27.5 63t-41.5 54t-68.5 35.5t-109 14h-39q-41 0 -41 184q0 25 11.5 44t29.5 19h39q95 0 168.5 -14.5t118 -38t78.5 -55.5t51.5 -65.5t35.5 -68.5t31.5 -65t38 -55t56.5 -37v369q0 45 219 45q25 0 47 -12t22 -31 v-371q36 14 61 44.5t41 66.5t34.5 76.5t49.5 77.5t76.5 67.5t125 48.5t186.5 18h41q18 0 28.5 -19t10.5 -44q0 -184 -39 -184h-41q-75 0 -124 -18t-73.5 -51t-38.5 -67.5t-32.5 -82t-41.5 -78.5l383 -459q31 -39 31 -64q0 -43 -82 -43q-56 0 -85 1t-74.5 11t-61.5 31 l-328 416l-47 -6v-412q0 -18 -22 -29.5t-47 -11.5q-219 0 -219 43v410q-50 6 -52 6l-325 -416q-16 -21 -62 -31t-74.5 -11t-85.5 -1q-81 0 -81 43z" />
<glyph unicode="&#x437;" horiz-adv-x="864" d="M47 57q0 30 24.5 106.5t53.5 76.5q85 -15 180 -15q81 0 139 16.5t58 55.5v63q0 32 -42.5 50t-103.5 18h-61q-27 0 -41 68.5t-14 117.5q0 25 11 44.5t30 19.5h57q145 0 145 65v41q0 37 -36 53.5t-125 16.5q-67 0 -179 -16q-28 -5 -51.5 71t-23.5 115q0 78 247 78 q90 0 152.5 -6t123.5 -25t97 -53.5t58 -93t22 -140.5v-41q0 -51 -25.5 -92t-51.5 -59.5t-50 -26.5q20 -8 40.5 -21t46.5 -37t42 -62t16 -85v-67q0 -59 -14.5 -107t-38 -80.5t-60 -56.5t-74 -37.5t-87.5 -21.5t-93 -10.5t-97 -2.5q-51 0 -107.5 5.5t-112 25t-55.5 49.5z" />
<glyph unicode="&#x438;" horiz-adv-x="1208" d="M94 14v1037q0 15 27 26t66.5 16t70.5 7t53 2q25 0 46.5 -15t21.5 -34v-609l448 615q18 24 87.5 33.5t129.5 9.5q26 0 47 -11t21 -30v-1034q0 -21 -16.5 -35.5t-40.5 -14.5q-228 0 -228 37v615l-448 -602q-35 -50 -72 -50q-213 0 -213 37z" />
<glyph unicode="&#x439;" horiz-adv-x="1210" d="M94 14q0 -37 213 -37q37 0 72 50l448 602v-615q0 -37 228 -37q24 0 40.5 14.5t16.5 35.5v1034q0 19 -21 30t-47 11q-60 0 -129.5 -9.5t-87.5 -33.5l-448 -615v609q0 19 -21.5 34t-46.5 15q-22 0 -53 -2t-70.5 -7t-66.5 -16t-27 -26v-1037zM317 1432q0 18 17.5 28t42.5 10 q170 0 170 -36q0 -25 16.5 -40.5t40.5 -15.5t41 15.5t17 40.5q0 36 169 36q25 0 43.5 -10t18.5 -28q0 -129 -85 -201t-204 -72t-203 72t-84 201z" />
<glyph unicode="&#x43a;" horiz-adv-x="1107" d="M96 20v1037q0 45 219 45q34 0 52 -14.5t18 -28.5v-371q36 14 61 44.5t41 66.5t34.5 77t49 78.5t76 68t125 49t186.5 18.5h41q19 0 29 -21q9 -20 11 -73t-8 -102t-32 -54h-41q-75 0 -124 -18t-74 -51.5t-38.5 -68t-32 -81.5t-40.5 -78l383 -459q31 -39 31 -64 q0 -43 -82 -43q-186 0 -221 43l-328 416l-47 -6v-412q0 -18 -22.5 -29.5t-47.5 -11.5q-219 0 -219 43z" />
<glyph unicode="&#x43b;" horiz-adv-x="1286" d="M74 90q80 176 116 166q45 -16 76 -16t43 104l94 674q8 67 41 67h701q20 0 33.5 -12.5t13.5 -25.5v-1027q0 -18 -23 -30.5t-49 -12.5q-25 0 -53 1.5t-69.5 5.5t-68 14t-26.5 25v800h-237l-72 -516q-45 -330 -326 -330q-102 0 -184 39q-34 15 -10 74z" />
<glyph unicode="&#x43c;" horiz-adv-x="1527" d="M94 29v1024q0 49 217 49q43 0 70 -45l393 -699l367 695q15 25 88.5 37t128.5 12q27 0 50.5 -13t23.5 -32v-1034q0 -19 -23.5 -32.5t-50.5 -13.5q-24 0 -53 1.5t-69 6.5t-66.5 16.5t-26.5 27.5v540l-248 -540q-31 -52 -76 -52q-148 0 -184 52l-252 549v-555 q0 -19 -24.5 -32.5t-49.5 -13.5q-24 0 -53 1.5t-69 6.5t-66.5 16.5t-26.5 27.5z" />
<glyph unicode="&#x43d;" horiz-adv-x="1126" d="M96 27v1022q0 16 27 27t67 16.5t71.5 7.5t53.5 2q25 0 47.5 -15.5t22.5 -35.5v-361h352v359q0 19 49 32t94 17t76 4q25 0 47.5 -15.5t22.5 -35.5v-1026q0 -19 -22.5 -34.5t-47.5 -15.5q-21 0 -52.5 2.5t-71.5 7.5t-67.5 16t-27.5 26v401h-352v-401q0 -20 -22.5 -36 t-47.5 -16q-21 0 -53 2.5t-71.5 7.5t-67 16t-27.5 26z" />
<glyph unicode="&#x43e;" horiz-adv-x="1110" d="M102 375v315q0 123 24 202t80 126t137.5 65.5t207.5 18.5h10q126 0 207.5 -18.5t137.5 -65.5t80 -126t24 -202v-315q0 -123 -24 -202t-80 -126t-137.5 -65.5t-207.5 -18.5h-10q-126 0 -207.5 18.5t-137.5 65.5t-80 126t-24 202zM391 385q0 -98 29 -132t125 -34h22 q96 0 125 34t29 132v293q0 100 -29 134t-125 34h-22q-96 0 -125 -34t-29 -134v-293z" />
<glyph unicode="&#x43f;" horiz-adv-x="1107" d="M94 20v1041q0 41 121 41h756q41 0 41 -193v-891q0 -18 -22.5 -29.5t-47.5 -11.5q-221 0 -221 43v824h-338v-826q0 -18 -22.5 -29.5t-47.5 -11.5q-219 0 -219 43z" />
<glyph unicode="&#x440;" horiz-adv-x="1120" d="M117 -453v1346q0 58 79 102.5t190 65.5t197 31t132 10q89 0 149 -28t93.5 -85.5t47 -131.5t13.5 -179v-303q0 -80 -2.5 -123t-18 -103.5t-46 -91t-90 -54t-146.5 -23.5q-149 0 -309 75v-501q0 -24 -23 -40t-51 -16t-57.5 1.5t-68.5 6t-64 15t-25 26.5zM406 287 q93 -49 249 -49q18 0 31 7t21 23t12.5 31t6.5 42.5t2.5 44.5t0.5 50v8v189q0 121 -14 160q-18 46 -60 47q-176 0 -249 -54v-499z" />
<glyph unicode="&#x441;" horiz-adv-x="948" d="M102 408v262q0 215 105 323.5t330 108.5q144 0 307 -41q48 -11 37 -74q-12 -59 -35.5 -121t-46.5 -57q-195 35 -262 35q-79 0 -111.5 -53t-32.5 -160v-185q0 -107 32.5 -160t111.5 -53q72 0 262 35q33 8 82 -176q8 -27 -1.5 -47t-35.5 -27q-138 -43 -307 -43 q-225 0 -330 109t-105 324z" />
<glyph unicode="&#x442;" horiz-adv-x="954" d="M14 891q0 194 43 194h838q18 0 30.5 -21t12.5 -44q0 -195 -43 -195h-272v-807q0 -19 -23 -31t-49 -12q-219 0 -219 45v805h-275q-18 0 -30.5 21.5t-12.5 44.5z" />
<glyph unicode="&#x443;" horiz-adv-x="1138" d="M127 397v656q0 21 24.5 35t55.5 14q25 0 54.5 -2t67.5 -7t62.5 -17t24.5 -29v-623q0 -41 2.5 -70t9 -56.5t20.5 -41.5t35 -14q76 0 161 19.5t87 33.5v758q0 21 23.5 35t54.5 14q26 0 54 -1.5t67.5 -6.5t64.5 -17t25 -30v-1031q0 -63 -1 -105.5t-5.5 -92t-12 -81.5 t-20.5 -67t-32.5 -56.5t-46.5 -42.5t-63 -32t-82.5 -17.5t-103.5 -6.5q-278 0 -460 73q-52 21 -29 82q1 3 10 30.5t16 44.5t18 40t23 35t25 12q3 0 9 -1t9 -1q65 -23 163.5 -40t172.5 -17q63 0 92 34t29 115v135q-164 -82 -293 -82q-50 0 -91 8.5t-71 21t-54 35.5 t-39.5 44.5t-26.5 54.5t-16.5 58.5t-8.5 65.5t-3.5 66t-0.5 68z" />
<glyph unicode="&#x444;" horiz-adv-x="1591" d="M102 375v319q-2 184 47 283t170 117q62 8 101 8q95 -4 231 -53v471q0 16 24.5 26.5t63.5 15t68 6t57 1.5q33 0 54.5 -18.5t21.5 -57.5v-444q62 23 127 37t102 16q41 0 103 -8q123 -18 170 -123t47 -293v-303q0 -46 -1 -75.5t-5 -70.5t-11.5 -68t-22 -57.5t-34.5 -50.5 t-51 -36.5t-70 -24.5q-51 -10 -137 -10q-35 2 -72 12.5t-58.5 20.5t-86.5 40v-501q0 -24 -23 -40t-51 -16t-57.5 1.5t-68.5 6t-64 15t-25 26.5v508q-8 -4 -30 -14t-28.5 -13t-24 -11t-24.5 -10t-21 -7.5t-22.5 -7t-21 -4.5t-23.5 -4t-24 -2q-84 0 -135 10q-40 8 -70.5 24.5 t-51 36t-35 51t-22 58t-11 68t-4.5 70t-1 75.5zM391 444q0 -39 0.5 -61.5t4.5 -54t11.5 -48.5t22 -29.5t35.5 -12.5q15 0 28 1t23 1.5t22 3t18.5 3.5t17.5 5t15 5t15.5 6.5t14 7t16 8.5t16.5 8v499q-45 31 -83 42.5t-103 11.5q-18 0 -31 -7.5t-21 -25t-12.5 -33t-6.5 -44.5 t-2.5 -46t-0.5 -51v-189zM940 287q64 -34 97 -41q36 -8 87 -8q18 0 31 7t21 23t12.5 31t6.5 42.5t2.5 44.5t0.5 50v8v189q0 121 -14 160q-17 47 -60 47q-64 0 -102.5 -12t-81.5 -42v-499z" />
<glyph unicode="&#x445;" horiz-adv-x="1101" d="M53 25q0 11 21 55l297 475l-252 444q-19 34 -19 54q0 49 82 49q55 0 124.5 -10t84.5 -31l160 -270l162 270q12 22 82 31.5t127 9.5q82 0 82 -49q0 -14 -19 -54l-252 -444l297 -475q19 -34 19 -55q0 -50 -84 -50q-57 0 -128.5 9.5t-86.5 31.5l-199 308l-199 -308 q-15 -22 -86 -31.5t-127 -9.5q-17 0 -34 3t-34.5 15t-17.5 32z" />
<glyph unicode="&#x446;" horiz-adv-x="1167" d="M96 37v1020q0 45 219 45q26 0 48 -12t22 -31v-805h363v803q0 45 219 45q25 0 47 -12t22 -31v-805h70q18 0 29.5 -21t11.5 -45v-436q0 -18 -22 -29.5t-48 -11.5q-219 0 -219 45v240h-641q-121 0 -121 41z" />
<glyph unicode="&#x447;" horiz-adv-x="1077" d="M51 713v344q0 45 217 45q25 0 48.5 -13t23.5 -32v-228q0 -50 12 -85.5t41 -53t50 -27.5t66.5 -9t62 2.5t62.5 8.5q6 1 9 1q11 2 23.5 4t17.5 3t8 3v381q0 45 219 45q26 0 48 -12t22 -31v-1039q0 -19 -23 -31t-49 -12q-217 0 -217 46v403q-94 -21 -157.5 -29t-140.5 -4 t-158 27q-185 47 -185 293z" />
<glyph unicode="&#x448;" horiz-adv-x="1464" d="M94 18v1039q0 45 221 45q26 0 48 -13t22 -32v-821h203v821q0 45 221 45q26 0 48 -13t22 -32v-821h204v821q0 45 222 45q25 0 46 -13t21 -32v-887q0 -193 -41 -193h-1114q-123 0 -123 41z" />
<glyph unicode="&#x449;" horiz-adv-x="1515" d="M94 18v1037q0 47 221 47q27 0 48.5 -13t21.5 -34v-819h203v819q0 47 221 47q27 0 48.5 -13t21.5 -34v-819h204v819q0 47 222 47q25 0 46 -13t21 -34v-819h43q45 0 65.5 -18.5t20.5 -72.5v-282q0 -33 -1 -51t-7 -46t-22 -41.5t-41 -13.5q-218 0 -218 45v221h-995 q-123 0 -123 41z" />
<glyph unicode="&#x44a;" horiz-adv-x="1312" d="M0 897q0 188 41 188h532q20 0 32.5 -11.5t12.5 -26.5v-314h238q76 0 135 -9.5t99 -25t68 -41.5t43 -51t23.5 -63.5t10.5 -68.5t2 -75v-75q0 -171 -88.5 -249.5t-308.5 -78.5h-428q-27 0 -53.5 13.5t-26.5 27.5l-2 794h-289q-18 0 -29.5 20.5t-11.5 45.5zM618 221h222 q62 0 84 17t22 57v121q0 42 -22 61t-84 19h-222v-275z" />
<glyph unicode="&#x44b;" horiz-adv-x="1589" d="M96 37v1018q0 47 219 47q25 0 47.5 -13t22.5 -32v-340h238q98 0 168.5 -16.5t110.5 -42t63 -67.5t29.5 -81.5t6.5 -95.5v-90q0 -114 -35 -183.5t-123.5 -107t-238.5 -37.5h-428q-26 0 -53 14t-27 27zM385 221h221q107 0 107 72v121q0 37 -24.5 56t-82.5 19h-221v-268z M1204 27v1028q0 15 27 25.5t68 14.5t70.5 5.5t53.5 1.5q25 0 47.5 -13.5t22.5 -31.5v-1032q0 -19 -22.5 -33.5t-47.5 -14.5q-24 0 -53.5 1.5t-70.5 6t-68 15.5t-27 27z" />
<glyph unicode="&#x44c;" horiz-adv-x="1036" d="M96 37v1018q0 47 219 47q25 0 47.5 -13t22.5 -32v-340h238q98 0 168.5 -16.5t110.5 -42t63 -67.5t29.5 -81.5t6.5 -95.5v-90q0 -114 -35 -183.5t-123.5 -107t-238.5 -37.5h-428q-26 0 -53 14t-27 27zM385 221h221q107 0 107 72v121q0 37 -24.5 56t-82.5 19h-221v-268z " />
<glyph unicode="&#x44d;" horiz-adv-x="948" d="M102 408v262q0 215 105 323.5t330 108.5q144 0 307 -41q48 -11 37 -74q-12 -59 -35.5 -121t-46.5 -57q-195 35 -262 35q-70 0 -104 -42.5t-40 -125.5h355q21 0 33 -20.5t12 -47.5q0 -202 -48 -202h-352q6 -87 39.5 -130t104.5 -43q72 0 262 35q33 8 82 -176 q8 -27 -1.5 -47t-35.5 -27q-138 -43 -307 -43q-225 0 -330 109t-105 324z" />
<glyph unicode="&#x44e;" horiz-adv-x="1607" d="M96 27v1022q0 16 27.5 27t68 16.5t72 7.5t53.5 2q24 0 46 -15.5t22 -35.5v-361h162q3 225 119.5 318.5t365.5 93.5h12q254 0 370 -96.5t116 -331.5v-266q0 -237 -116.5 -334t-369.5 -97h-12q-253 0 -369 97t-116 334v20h-162v-401q0 -18 -22 -34t-46 -16q-62 0 -141.5 12 t-79.5 38zM844 455q0 -37 1 -58t4.5 -48t11 -41t21 -29.5t33.5 -23t49 -12.5t68 -5h12q53 0 89 9.5t56 24.5t30.5 45t13 59t2.5 79v170q0 41 -1.5 66t-8 52.5t-18.5 43t-33 29t-53 19t-77 5.5h-12q-39 0 -68 -5t-49 -12t-33.5 -23t-21 -30t-11 -40.5t-4.5 -47t-1 -57.5v-170 z" />
<glyph unicode="&#x44f;" horiz-adv-x="1073" d="M121 18q0 19 22 56l181 288q-89 32 -134 107.5t-45 212.5v55q0 87 18.5 148.5t52 100.5t89.5 61t120.5 30t156.5 8h362q26 0 47 -10t21 -28v-1027q0 -45 -219 -45q-26 0 -48 10.5t-22 28.5v320h-90l-205 -320q-13 -21 -84 -30t-133 -9q-9 0 -20 1t-29 5t-29.5 13.5 t-11.5 23.5zM444 682q0 -58 23.5 -73t114.5 -15h141v233h-141q-90 0 -114 -16.5t-24 -73.5v-55z" />
<glyph unicode="&#x451;" horiz-adv-x="1060" d="M102 440v271q0 196 106 293.5t355 97.5h23q70 0 125 -10.5t93.5 -28t66.5 -45.5t44 -57t25.5 -69t12.5 -75.5t3 -81.5v-102q0 -34 -11.5 -59.5t-47 -51.5t-96 -43.5t-164 -29.5t-244.5 -15q0 -203 160 -203q95 0 315 45q14 3 27.5 -14.5t24 -50t17 -56.5t11.5 -49 q11 -61 -37 -75q-174 -56 -358 -56q-216 0 -333.5 116t-117.5 349zM203 1274v278q0 16 24.5 26.5t63.5 15.5t69 6.5t58 1.5q30 0 52 -16.5t22 -41.5v-264q0 -24 -22 -40.5t-52 -16.5q-71 0 -143 11t-72 40zM393 643q95 0 185 11.5t90 37.5v78q0 58 -21 82.5t-74 24.5 q-88 0 -134 -37.5t-46 -137.5v-59zM598 1274v278q0 16 24.5 26.5t63 15.5t68.5 6.5t57 1.5q30 0 53 -16.5t23 -41.5v-264q0 -24 -23 -40.5t-53 -16.5q-27 0 -57 2t-68.5 6.5t-63 15.5t-24.5 27z" />
<glyph unicode="&#x452;" horiz-adv-x="1175" d="M-4 1247q0 201 47 201h113v80q1 14 26 24t63.5 14t67.5 5.5t56 1.5q29 0 51 -15.5t22 -39.5v-70h131q21 0 33 -20.5t12 -47.5q0 -202 -47 -202h-129v-152q141 76 297 76q62 0 111 -12t81.5 -31t56 -51t36.5 -63t20 -75.5t9 -80.5t2 -87v-761q0 -227 -79.5 -333 t-246.5 -106q-118 0 -223 43q-47 20 -31 80q6 21 15.5 47.5t23.5 59t30.5 52t30.5 15.5q73 -20 117 -20q43 0 57.5 45.5t14.5 165.5v672q0 41 -2.5 70t-9.5 56.5t-22 41.5t-38 14q-51 0 -110.5 -10t-97.5 -22.5t-40 -20.5v-760q0 -24 -23 -40t-52 -16q-27 0 -57 1.5 t-68.5 6.5t-63 15.5t-24.5 26.5v1153h-115q-19 0 -32 21.5t-13 47.5z" />
<glyph unicode="&#x453;" horiz-adv-x="827" d="M96 43q0 -15 27 -25.5t68 -14.5t70.5 -5.5t53.5 -1.5q25 0 47.5 13.5t22.5 31.5v803h395q18 0 31.5 21t13.5 44q0 193 -43 193h-565q-121 0 -121 -41v-1018zM337 1255q-5 11 5 25l287 381q12 18 58.5 10t83.5 -20.5t58 -22.5q22 -13 36.5 -24.5t20.5 -20t8 -15.5t1 -11 t-4 -7l-316 -301q-18 -17 -110 -20q-112 -4 -128 26z" />
<glyph unicode="&#x454;" horiz-adv-x="950" d="M78 406v268q0 120 29 202.5t91 132.5t150.5 71.5t214.5 21.5h10q48 0 121 -9.5t145 -36.5t72 -63q0 -15 -16.5 -62.5t-40.5 -89t-41 -36.5q-129 35 -240 35h-10q-60 0 -97.5 -9t-57 -31t-26 -49.5t-7.5 -72.5h340q19 0 32 -20.5t13 -45.5q0 -192 -43 -192h-342 q1 -52 6.5 -81t24.5 -55t56.5 -36t100.5 -10h10q107 0 240 36q17 5 41 -37t40.5 -90.5t16.5 -64.5q0 -35 -72 -60.5t-145 -35t-121 -9.5h-10q-126 0 -214.5 22t-150.5 72t-91 132.5t-29 202.5z" />
<glyph unicode="&#x455;" horiz-adv-x="989" d="M61 141q1 3 9 22.5t13 31.5t14.5 32t17 32.5t17 25t19 17.5t17.5 3q176 -67 303 -67q22 0 54.5 3.5t69 16.5t36.5 33t-27.5 45t-71.5 51t-97.5 56.5t-107 68.5t-97.5 80t-71.5 96.5t-27.5 112.5q0 73 25.5 128.5t66 88t100 53t116.5 27.5t126 8q159 0 271 -37 q50 -15 34 -76q-33 -148 -62 -171q-9 -7 -17 -5q-166 27 -226 27q-49 0 -90 -10t-41 -33q0 -21 27.5 -45t71.5 -49t97.5 -54t107 -66t97.5 -79t71.5 -98.5t27.5 -118.5q0 -83 -38 -145.5t-103.5 -97.5t-143 -51.5t-166.5 -16.5q-201 0 -397 81q-47 24 -25 80z" />
<glyph unicode="&#x456;" horiz-adv-x="657" d="M121 272v783q0 47 215 47q29 0 52.5 -14.5t23.5 -36.5v-723q0 -45 8.5 -63.5t36.5 -18.5q15 0 90 22q12 4 26 -12t27 -46t21 -52.5t16 -46.5q9 -24 2 -49t-29 -35q-115 -52 -239 -52q-250 0 -250 297zM123 1282v234q0 29 72 40t141 11q30 0 53 -16.5t23 -41.5v-221 q0 -24 -23 -39.5t-53 -15.5q-27 0 -56 1.5t-68 6t-64 15t-25 26.5z" />
<glyph unicode="&#x457;" horiz-adv-x="673" d="M-53 1257v279q0 49 215 49q30 0 52 -16t22 -41v-264q0 -24 -22 -41t-52 -17q-71 0 -143 11t-72 40zM137 272v783q0 47 215 47q29 0 51.5 -14.5t22.5 -36.5v-723q0 -44 9.5 -63t35.5 -19q15 0 90 22q13 4 27.5 -12.5t27 -45t21 -53.5t14.5 -46q9 -24 3 -49t-29 -35 q-115 -52 -238 -52q-250 0 -250 297zM342 1257v279q0 16 24.5 26.5t63.5 15t68 6t57 1.5q31 0 53.5 -16t22.5 -41v-264q0 -24 -23 -41t-53 -17q-27 0 -57 2t-68.5 6.5t-63 15.5t-24.5 27z" />
<glyph unicode="&#x458;" horiz-adv-x="530" d="M-170 -362q6 21 15.5 47.5t23.5 59t30.5 52t30.5 15.5q74 -21 115 -21q44 0 59 45.5t15 165.5v1053q0 47 215 47q29 0 52.5 -14.5t23.5 -36.5v-1098q0 -227 -80.5 -332.5t-247.5 -105.5q-116 0 -221 43q-47 19 -31 80zM119 1282v234q0 29 73 40t142 11q30 0 53 -16.5 t23 -41.5v-221q0 -24 -23 -39.5t-53 -15.5q-27 0 -56.5 1.5t-69 6t-64.5 15t-25 26.5z" />
<glyph unicode="&#x459;" horiz-adv-x="1896" d="M70 90q11 28 28 62.5t43.5 71.5t44.5 32q25 -9 41.5 -13t29.5 -2t20 6.5t12.5 20t8.5 31t7 45.5l98 674q8 67 41 67h717q17 0 32 -14t15 -24v-312h238q83 0 146.5 -10.5t104 -32t67 -47t39.5 -62.5t17.5 -71t4.5 -80v-108q0 -84 -19 -143t-63.5 -102t-120 -63t-186.5 -20 h-437q-26 0 -52.5 13.5t-26.5 27.5v786h-256l-70 -516q-45 -330 -326 -330q-108 0 -188 39q-34 15 -10 74zM1208 221h238q57 0 73.5 21t16.5 67v105q0 22 -2 33t-10 23t-27 17t-51 5h-238v-271z" />
<glyph unicode="&#x45a;" horiz-adv-x="1712" d="M96 27v1022q0 16 27.5 27t68 16.5t72 7.5t53.5 2q24 0 46 -15.5t22 -35.5v-334h352v332q0 19 49 32t94.5 17t77.5 4q24 0 46 -15.5t22 -35.5v-334h238q71 0 128 -10t96 -27t67.5 -43t45 -53t26 -62.5t12.5 -66.5t3 -70v-61q0 -170 -88 -249t-309 -79h-432q-24 0 -37.5 2 t-26 13t-12.5 32v444h-352v-460q0 -18 -22 -34t-46 -16q-62 0 -141.5 12t-79.5 38zM1026 221h236q55 0 73.5 22t18.5 66v58q0 26 -1 40t-5.5 33t-13.5 28.5t-26.5 16.5t-43.5 7h-238v-271z" />
<glyph unicode="&#x45b;" horiz-adv-x="1169" d="M29 1239q0 201 47 201h76v88q1 14 26 24t63.5 14t67.5 5.5t56 1.5q29 0 51 -15.5t22 -39.5v-78h168q21 0 33 -20.5t12 -47.5q0 -203 -47 -203h-166v-143q141 76 297 76q62 0 111 -12t81.5 -31t56 -51t36.5 -63t20 -75.5t9 -80.5t2 -87v-671q0 -24 -24.5 -40t-53.5 -16 q-27 0 -57 1.5t-68.5 6.5t-63 15.5t-24.5 26.5v637q0 41 -2.5 70t-9.5 56.5t-22 41.5t-38 14q-51 0 -110.5 -10t-97.5 -22.5t-40 -20.5v-760q0 -24 -23 -40t-52 -16q-27 0 -57 1.5t-68.5 6.5t-63 15.5t-24.5 26.5v1144h-78q-19 0 -32 22t-13 48z" />
<glyph unicode="&#x45c;" horiz-adv-x="1155" d="M96 20v1037q0 45 219 45q25 0 46.5 -12t21.5 -31v-459l352 457q39 45 221 45q84 0 84 -43q0 -26 -32 -64l-340 -417l403 -496q31 -42 31 -64q0 -43 -84 -43q-52 0 -84 1.5t-76.5 12t-60.5 31.5l-414 533v-535q0 -19 -21.5 -31t-46.5 -12q-219 0 -219 45zM440 1257 q-5 11 4 25l287 381q12 18 58.5 10t84 -20.5t58.5 -22.5q22 -13 36.5 -24.5t20.5 -20t8 -15.5t0.5 -11t-4.5 -7l-315 -301q-18 -17 -109 -20q-113 -4 -129 26z" />
<glyph unicode="&#x45e;" horiz-adv-x="1138" d="M127 397v656q0 21 24.5 35t55.5 14q25 0 54.5 -2t67.5 -7t62.5 -17t24.5 -29v-623q0 -41 2.5 -70t9 -56.5t20.5 -41.5t35 -14q76 0 161 19.5t87 33.5v758q0 21 23.5 35t54.5 14q26 0 54 -1.5t67.5 -6.5t64.5 -17t25 -30v-1031q0 -63 -1 -105.5t-5.5 -92t-12 -81.5 t-20.5 -67t-32.5 -56.5t-46.5 -42.5t-63 -32t-82.5 -17.5t-103.5 -6.5q-278 0 -460 73q-52 21 -29 82q1 3 10 30.5t16 44.5t18 40t23 35t25 12q3 0 9 -1t9 -1q65 -23 163.5 -40t172.5 -17q63 0 92 34t29 115v135q-164 -82 -293 -82q-50 0 -91 8.5t-71 21t-54 35.5 t-39.5 44.5t-26.5 54.5t-16.5 58.5t-8.5 65.5t-3.5 66t-0.5 68zM225 1561q0 20 19 31.5t45 11.5q180 0 180 -39q0 -48 32.5 -75.5t76.5 -27.5t76 27.5t32 75.5q0 39 180 39q26 0 45 -11.5t19 -31.5q0 -81 -30 -146t-80.5 -105t-112 -60.5t-129.5 -20.5t-130 20.5 t-112.5 60.5t-80.5 105t-30 146z" />
<glyph unicode="&#x45f;" horiz-adv-x="1224" d="M96 37v1020q0 45 219 45q26 0 48 -12t22 -31v-805h436v803q0 45 221 45q26 0 48 -12t22 -31v-871q0 -192 -41 -192h-323v-205q0 -19 -22 -31t-48 -12q-219 0 -219 45v203h-242q-121 0 -121 41z" />
<glyph unicode="&#x490;" horiz-adv-x="1081" d="M129 51v1399q0 45 135 45h512v348q0 16 27 26.5t69.5 15t73.5 6t60 1.5t53 -15.5t24 -39.5v-545q0 -27 -15.5 -49t-37.5 -22h-594v-1164q0 -25 -22.5 -41t-51.5 -16q-28 0 -61 2t-75 6.5t-69.5 15.5t-27.5 27z" />
<glyph unicode="&#x491;" horiz-adv-x="821" d="M96 39v1022q0 41 121 41h318v256q0 43 219 43q26 0 46.5 -11.5t20.5 -31.5v-449q0 -25 -11.5 -45t-29.5 -20h-395v-807q0 -18 -22.5 -29.5t-47.5 -11.5q-219 0 -219 43z" />
<glyph unicode="&#x2000;" horiz-adv-x="1007" />
<glyph unicode="&#x2001;" horiz-adv-x="2015" />
<glyph unicode="&#x2002;" horiz-adv-x="1007" />
<glyph unicode="&#x2003;" horiz-adv-x="2015" />
<glyph unicode="&#x2004;" horiz-adv-x="671" />
<glyph unicode="&#x2005;" horiz-adv-x="503" />
<glyph unicode="&#x2006;" horiz-adv-x="335" />
<glyph unicode="&#x2007;" horiz-adv-x="335" />
<glyph unicode="&#x2008;" horiz-adv-x="251" />
<glyph unicode="&#x2009;" horiz-adv-x="403" />
<glyph unicode="&#x200a;" horiz-adv-x="111" />
<glyph unicode="&#x2010;" horiz-adv-x="813" d="M96 524q0 201 47 201h531q21 0 33 -20.5t12 -47.5q0 -202 -47 -202h-531q-19 0 -32 21.5t-13 47.5z" />
<glyph unicode="&#x2011;" horiz-adv-x="813" d="M96 524q0 201 47 201h531q21 0 33 -20.5t12 -47.5q0 -202 -47 -202h-531q-19 0 -32 21.5t-13 47.5z" />
<glyph unicode="&#x2012;" horiz-adv-x="813" d="M96 524q0 201 47 201h531q21 0 33 -20.5t12 -47.5q0 -202 -47 -202h-531q-19 0 -32 21.5t-13 47.5z" />
<glyph unicode="&#x2013;" horiz-adv-x="1032" d="M55 520q0 201 49 201h807q22 0 34.5 -20.5t12.5 -47.5q0 -202 -47 -202h-809q-21 0 -34 21.5t-13 47.5z" />
<glyph unicode="&#x2014;" horiz-adv-x="1753" d="M96 524q0 201 49 201h1483q21 0 33 -20.5t12 -47.5q0 -202 -47 -202h-1483q-21 0 -34 21.5t-13 47.5z" />
<glyph unicode="&#x2018;" horiz-adv-x="475" d="M180 1122q0 18 8 29l273 358q31 37 62.5 48.5t74.5 11.5q33 0 18 -60l-108 -397q-15 -47 -250 -47q-32 0 -55 18t-23 39z" />
<glyph unicode="&#x2019;" horiz-adv-x="524" d="M66 1128l108 398q15 47 250 47q32 0 55 -18t23 -39q0 -18 -8 -29l-273 -359q-30 -37 -61.5 -48t-75.5 -11q-33 0 -18 59z" />
<glyph unicode="&#x201a;" horiz-adv-x="493" d="M36.5 -167q-1.5 23 4.5 38l96 410q4 20 76.5 29t142.5 9q68 0 68 -51q0 -14 -6 -26l-236 -371q-27 -42 -51.5 -51.5t-71.5 -9.5q-21 0 -22.5 23z" />
<glyph unicode="&#x201c;" horiz-adv-x="909" d="M49 1122q0 18 8 29l273 358q31 37 62.5 48.5t74.5 11.5q33 0 18 -60l-108 -397q-15 -47 -250 -47q-32 0 -55 18t-23 39zM463 1122q0 18 8 29l272 358q31 37 63 48.5t75 11.5q33 0 18 -60l-108 -397q-15 -47 -250 -47q-32 0 -55 18t-23 39z" />
<glyph unicode="&#x201d;" horiz-adv-x="882" d="M18 1511q-15 60 19 60q43 0 74.5 -11.5t62.5 -48.5l272 -358q9 -12 9 -29q0 -21 -23 -39t-55 -18q-235 0 -250 47zM434 1511q-15 60 19 60q43 0 74.5 -11.5t62.5 -48.5l272 -358q8 -11 8 -29q0 -21 -22.5 -39t-54.5 -18q-235 0 -250 47z" />
<glyph unicode="&#x201e;" horiz-adv-x="870" d="M-35 -266l109 397q15 47 250 47q32 0 54.5 -18t22.5 -39q0 -18 -8 -29l-272 -358q-31 -37 -62.5 -48.5t-74.5 -11.5q-34 0 -19 60zM391 -266l109 397q15 47 250 47q32 0 54.5 -18t22.5 -39q0 -18 -8 -29l-272 -358q-31 -37 -62.5 -48.5t-74.5 -11.5q-34 0 -19 60z" />
<glyph unicode="&#x2026;" horiz-adv-x="1454" d="M86 23v284q0 47 213 47q31 0 53.5 -14.5t22.5 -38.5v-272q0 -24 -22.5 -39t-53.5 -15q-213 0 -213 48zM582 23v284q0 47 213 47q31 0 53 -14.5t22 -38.5v-272q0 -24 -22.5 -39t-52.5 -15q-213 0 -213 48zM1077 23v284q0 47 215 47q31 0 52.5 -14.5t21.5 -38.5v-272 q0 -24 -22 -39t-52 -15q-215 0 -215 48z" />
<glyph unicode="&#x202f;" horiz-adv-x="403" />
<glyph unicode="&#x2039;" horiz-adv-x="786" d="M129 588l320 393q15 19 22.5 26.5t20.5 13t32 5.5q18 0 62.5 -43.5t44.5 -64.5q0 -34 -21 -64l-200 -266l200 -266q21 -33 21 -64q0 -22 -44.5 -66.5t-62.5 -44.5q-27 0 -40 8.5t-35 34.5z" />
<glyph unicode="&#x203a;" horiz-adv-x="786" d="M150 256q0 32 22 66l199 266l-199 266q-22 32 -22 64q0 48 36.5 73.5t81 21.5t66.5 -32l319 -393l-319 -398q-23 -27 -67 -30t-80.5 22.5t-36.5 73.5z" />
<glyph unicode="&#x205f;" horiz-adv-x="503" />
<glyph unicode="&#x20ac;" horiz-adv-x="1345" d="M29 514q0 166 39 166h178v43h-180q-16 0 -26.5 18t-10.5 41q0 164 39 164h178q2 154 41 259.5t118.5 169.5t192.5 92t272 28h17q63 0 152 -11.5t172 -40.5t83 -67q0 -17 -18 -67.5t-44 -95t-44 -39.5q-156 47 -301 47h-17q-90 0 -148 -15t-92.5 -50.5t-49.5 -84.5 t-19 -125h297q18 0 27.5 -16.5t9.5 -38.5q0 -168 -39 -168h-295v-43h297q18 0 27.5 -16.5t9.5 -40.5q0 -164 -39 -164h-289q15 -112 81.5 -159.5t221.5 -47.5h17q141 0 301 45q18 5 44 -40t44 -95.5t18 -67.5q0 -38 -83 -67t-172 -40.5t-152 -11.5h-17q-302 0 -452 110.5 t-170 373.5h-182q-16 0 -26.5 16.5t-10.5 38.5z" />
<glyph unicode="&#x2122;" horiz-adv-x="1855" d="M18 1352q0 161 35 161h647q14 0 24.5 -17.5t10.5 -37.5q0 -164 -35 -164h-204v-594q0 -14 -18.5 -23t-37.5 -9q-186 0 -186 34v592h-203q-13 0 -23 18.5t-10 39.5zM643 729l195 756q8 39 145 39q21 0 41.5 -11t26.5 -28l170 -410l159 410q15 39 154 39q22 0 40 -11 t21 -28l187 -756q8 -32 -15 -46.5t-49 -14.5q-166 0 -176 45l-86 338l-137 -344q-17 -39 -62 -39q-132 0 -147 39l-139 344l-86 -338q-10 -45 -176 -45q-27 0 -50 14.5t-16 46.5z" />
<glyph unicode="&#x25fc;" horiz-adv-x="1105" d="M0 0v1106h1106v-1106h-1106z" />
</font>
</defs>
</svg>
